# Blender v2.82 (sub 7) OBJ File: 'asteroid1.blend'
# www.blender.org
mtllib asteroid1.mtl
o Cube
v -1.000000 2.000000 -5.000000
v 1.000000 -2.000000 -5.000000
v 1.000000 3.000000 -3.000000
v 3.000000 -4.000000 -4.000000
v -3.000000 -1.000000 -4.000000
v -5.228137 2.515923 -1.714106
v -5.228137 -1.984077 -2.214106
v 0.000000 5.000000 0.000000
v 1.000000 -5.000000 -1.000000
v -5.000000 2.000000 0.000000
v -3.464248 -2.817410 -0.158550
v -3.214248 -2.817410 3.841450
v -4.000000 2.000000 4.000000
v 0.000000 2.000000 3.000000
v -2.000000 -5.000000 3.000000
v -6.000000 1.000000 0.000000
v -6.000000 0.000000 2.000000
v 5.000000 2.000000 -4.000000
v 6.000000 -1.000000 -4.000000
v 7.000000 3.000000 -1.000000
v 7.000000 1.000000 -2.000000
v 1.000000 2.000000 5.000000
v -2.000000 0.000000 6.000000
v 5.000000 2.000000 1.000000
v 4.000000 -2.000000 1.000000
v 3.000000 -1.000000 4.000000
v 4.000000 1.000000 2.000000
v 4.000000 1.000000 3.000000
vt 0.812500 1.000000
vt 0.625000 0.875000
vt 0.875000 0.875000
vt 0.875000 0.625000
vt 0.812500 0.937500
vt 0.687500 0.812500
vt 0.687500 0.687500
vt 1.000000 0.500000
vt 1.000000 0.562500
vt 0.875000 0.625000
vt 0.937500 0.500000
vt 0.937500 0.750000
vt 0.875000 0.875000
vt 0.687500 0.687500
vt 1.000000 0.625000
vt 0.812500 0.500000
vt 0.875000 0.625000
vt 0.750000 0.500000
vt 0.562500 0.500000
vt 0.875000 0.562500
vt 0.562500 0.625000
vt 0.687500 0.937500
vt 0.625000 0.937500
vt 0.625000 0.812500
vt 0.687500 0.812500
vt 0.875000 0.750000
vt 0.750000 0.812500
vt 0.750000 0.875000
vt 0.812500 0.875000
vt 0.750000 0.625000
vt 0.625000 0.562500
vt 0.812500 0.500000
vt 0.812500 0.625000
vt 0.687500 0.500000
vt 0.812500 0.500000
vt 0.937500 0.625000
vt 0.687500 0.625000
vt 0.562500 0.750000
vt 0.562500 0.625000
vt 0.625000 0.562500
vt 1.000000 0.500000
vt 0.937500 0.625000
vt 0.750000 0.500000
vt 0.875000 0.625000
vt 0.875000 0.812500
vt 0.687500 0.812500
vt 0.750000 0.625000
vt 0.875000 0.812500
vt 0.937500 0.750000
vt 0.875000 1.000000
vt 0.750000 0.687500
vt 1.000000 0.562500
vt 0.875000 0.625000
vt 0.750000 0.500000
vt 0.937500 0.562500
vt 0.687500 0.812500
vt 0.875000 0.875000
vt 0.750000 0.875000
vt 0.750000 0.750000
vt 0.875000 0.750000
vt 0.750000 0.625000
vt 0.750000 0.562500
vt 0.625000 0.687500
vt 0.687500 0.562500
vt 0.875000 0.562500
vt 0.812500 0.750000
vt 0.750000 0.750000
vt 0.562500 0.812500
vt 0.562500 0.562500
vt 0.687500 0.500000
vt 0.937500 0.625000
vt 0.812500 0.500000
vt 0.875000 0.500000
vt 0.937500 0.562500
vt 0.812500 0.625000
vt 0.687500 0.500000
vt 0.812500 0.562500
vt 0.875000 0.750000
vt 0.750000 0.750000
vt 0.687500 0.562500
vt 0.812500 0.625000
vt 0.625000 0.687500
vt 0.812500 0.500000
vt 0.562500 0.562500
vt 0.875000 0.687500
vt 1.000000 0.750000
vt 1.000000 1.000000
vt 0.875000 0.937500
vt 0.875000 0.562500
vt 0.875000 0.687500
vt 0.750000 0.750000
vt 0.687500 0.562500
vt 0.875000 0.500000
vt 1.000000 0.500000
vt 1.000000 0.625000
vt 0.875000 0.625000
vt 0.875000 0.625000
vt 0.750000 0.500000
vn -0.1402 0.9345 -0.3271
vn -0.3576 -0.8725 -0.3331
vn -0.6188 0.1132 -0.7773
vn -0.3171 -0.6341 -0.7052
vn 0.6195 0.2915 -0.7288
vn -0.2722 -0.1361 -0.9526
vn -0.0249 0.0249 -0.9994
vn -0.3140 0.8897 -0.3315
vn 0.1541 0.8732 -0.4623
vn -0.8950 -0.1765 0.4098
vn 0.1275 -0.5103 0.8505
vn -0.6346 -0.7414 -0.2181
vn 0.3581 -0.0716 0.9309
vn -0.2468 0.8775 0.4113
vn -0.8018 0.5345 0.2673
vn -0.7250 -0.6872 0.0453
vn -0.6340 -0.1285 0.7625
vn -0.6963 0.6963 0.1741
vn 0.7450 0.2709 -0.6096
vn -0.1558 0.0519 -0.9864
vn 0.6196 -0.7573 0.2065
vn 0.6954 -0.6651 0.2721
vn 0.9113 -0.1302 0.3906
vn 0.7735 -0.2275 0.5915
vn 0.2816 0.6912 0.6656
vn 0.0000 1.0000 0.0000
vn -0.1543 0.6172 0.7715
vn 0.5970 0.3980 0.6965
vn 0.3015 0.9045 0.3015
vn 0.6396 -0.6396 0.4264
vn -0.7687 -0.1459 0.6228
vn -0.8086 -0.5262 -0.2631
usemtl Material
s off
f 1/1/1 6/2/1 3/3/1
f 7/4/2 4/5/2 9/6/2 11/7/2
f 7/8/3 6/9/3 1/10/3 5/11/3
f 5/12/4 2/13/4 4/14/4 7/15/4
f 2/16/5 1/10/5 3/17/5 4/18/5
f 5/11/6 1/10/6 2/16/6
f 10/19/7 11/20/7 16/21/7
f 3/22/8 6/23/8 10/24/8 8/25/8
f 3/26/9 8/27/9 20/28/9 18/29/9
f 6/30/10 7/31/10 11/32/10 10/33/10
f 12/34/11 15/35/11 26/36/11 23/37/11
f 11/7/12 9/38/12 15/39/12 12/40/12
f 26/41/13 22/42/13 23/43/13
f 8/44/14 10/45/14 13/46/14 14/47/14
f 16/48/15 17/49/15 13/50/15
f 11/51/16 12/52/16 17/49/16
f 12/53/17 13/54/17 17/55/17
f 13/50/18 10/56/18 16/48/18
f 19/57/19 18/58/19 20/59/19 21/60/19
f 4/18/20 3/17/20 18/61/20 19/62/20
f 9/63/21 21/64/21 25/65/21 15/66/21
f 9/67/22 4/68/22 19/69/22 21/70/22
f 25/71/23 24/72/23 27/73/23 28/74/23
f 21/75/24 20/76/24 24/72/24 25/71/24
f 20/77/25 8/78/25 14/79/25 24/80/25
f 14/81/26 13/82/26 22/83/26
f 13/54/27 23/37/27 22/84/27
f 22/85/28 26/86/28 28/87/28 27/88/28
f 24/89/29 14/90/29 22/91/29 27/92/29
f 15/93/30 25/94/30 28/95/30 26/96/30
f 13/54/31 12/53/31 23/37/31
f 16/97/32 11/98/32 17/55/32
