# Blender v2.82 (sub 7) OBJ File: 'asteroid2.blend'
# www.blender.org
mtllib asteroid2.mtl
o Cube
v 0.000000 6.000000 3.000000
v -2.000000 -3.000000 3.000000
v -1.000000 4.000000 5.000000
v -4.000000 0.000000 5.000000
v -7.000000 1.000000 0.000000
v -7.000000 -1.000000 0.000000
v -7.000000 1.000000 2.000000
v -6.000000 0.000000 2.000000
v 4.000000 6.000000 0.000000
v 5.000000 -4.000000 0.000000
v -2.000000 2.000000 -6.000000
v -1.000000 -5.000000 -4.000000
v 3.000000 4.000000 4.000000
v 3.000000 -2.000000 3.000000
v 5.000000 1.000000 2.000000
v 4.000000 -3.000000 1.000000
v 7.000000 1.000000 -2.000000
v 7.000000 -2.000000 -2.000000
v 6.000000 1.000000 -5.000000
v 6.000000 -1.000000 -4.000000
v -1.000000 7.000000 1.000000
vt 1.000000 0.625000
vt 0.562500 0.625000
vt 0.562500 0.500000
vt 0.875000 0.500000
vt 0.687500 0.625000
vt 0.625000 0.562500
vt 0.812500 0.500000
vt 0.750000 0.625000
vt 0.875000 0.500000
vt 0.937500 0.500000
vt 1.000000 0.625000
vt 0.875000 0.625000
vt 0.625000 0.625000
vt 0.875000 0.625000
vt 0.812500 0.812500
vt 0.687500 0.812500
vt 1.000000 0.500000
vt 0.812500 0.562500
vt 0.812500 0.500000
vt 0.937500 0.687500
vt 0.937500 0.937500
vt 0.750000 0.812500
vt 0.875000 0.625000
vt 0.875000 0.812500
vt 0.562500 0.875000
vt 0.562500 0.500000
vt 0.687500 0.500000
vt 0.562500 1.000000
vt 0.562500 0.687500
vt 0.875000 0.687500
vt 0.875000 1.000000
vt 0.625000 0.500000
vt 0.562500 0.750000
vt 0.562500 0.500000
vt 0.750000 0.812500
vt 0.875000 0.812500
vt 0.875000 0.875000
vt 0.750000 0.875000
vt 0.812500 0.500000
vt 1.000000 0.500000
vt 1.000000 0.625000
vt 0.812500 0.625000
vt 0.687500 0.812500
vt 0.687500 0.562500
vt 0.812500 0.625000
vt 0.812500 0.812500
vt 0.812500 0.500000
vt 1.000000 0.625000
vt 1.000000 0.625000
vt 0.812500 0.625000
vt 0.812500 0.500000
vt 1.000000 0.500000
vt 0.625000 0.500000
vt 0.750000 0.500000
vt 0.687500 0.625000
vt 0.562500 0.562500
vt 0.875000 0.500000
vt 0.812500 0.625000
vt 0.625000 0.625000
vt 0.687500 0.500000
vt 0.875000 0.750000
vt 0.562500 0.750000
vt 0.562500 0.562500
vt 0.750000 0.562500
vt 0.875000 0.875000
vt 1.000000 0.562500
vt 1.000000 0.750000
vt 0.937500 0.875000
vt 0.750000 0.625000
vt 0.625000 1.000000
vt 0.625000 0.687500
vt 0.812500 0.812500
vt 0.625000 0.812500
vt 0.750000 0.625000
vt 0.937500 0.687500
vt 0.937500 1.000000
vt 0.875000 0.875000
vn -0.5867 0.7734 0.2400
vn -0.6396 0.2558 0.7249
vn -0.9045 -0.3015 0.3015
vn -0.5988 -0.6362 0.4865
vn 0.7325 -0.2817 0.6198
vn -0.6882 -0.2294 -0.6882
vn 0.1233 -0.3015 -0.9455
vn -0.2357 -0.9428 0.2357
vn 0.9087 0.2673 -0.3207
vn 0.2120 -0.7420 0.6360
vn 0.6702 -0.2094 0.7121
vn 0.6726 0.5808 0.4586
vn -0.1299 -0.0487 0.9903
vn 1.0000 0.0000 0.0000
vn 0.9204 -0.0767 -0.3835
vn 0.4107 -0.7757 -0.4791
vn 0.3440 0.7292 -0.5916
vn 0.6418 0.0494 0.7653
vn -0.2580 0.9029 -0.3439
vn -0.6145 0.6809 -0.3986
vn -0.6240 0.5280 0.5760
usemtl Material
s off
f 1/1/1 5/2/1 7/3/1 3/4/1
f 4/5/2 3/6/2 7/7/2 8/8/2
f 8/9/3 7/10/3 5/11/3 6/12/3
f 6/13/4 2/14/4 4/15/4 8/16/4
f 2/17/5 1/1/5 3/18/5 4/19/5
f 6/20/6 5/21/6 11/22/6 12/23/6
f 12/24/7 11/25/7 19/26/7 20/27/7
f 2/28/8 6/29/8 12/30/8 10/31/8
f 1/32/9 11/33/9 21/34/9
f 2/35/10 10/36/10 16/37/10 14/38/10
f 13/39/11 14/40/11 16/41/11 15/42/11
f 9/43/12 1/44/12 13/45/12 15/46/12
f 1/47/13 2/17/13 14/48/13 13/45/13
f 10/49/14 9/50/14 15/51/14 16/52/14
f 20/53/15 19/54/15 17/55/15 18/56/15
f 10/57/16 12/58/16 20/59/16 18/60/16
f 11/61/17 9/62/17 17/63/17 19/64/17
f 9/65/18 10/66/18 18/67/18 17/68/18
f 1/69/19 9/70/19 11/71/19
f 21/72/20 11/73/20 5/74/20
f 5/75/21 1/76/21 21/77/21
