# Blender v2.82 (sub 7) OBJ File: 'base_arm_destroyed.blend'
# www.blender.org
mtllib base_arm_destroyed.mtl
o Cube
v -2.000000 2.000000 0.000000
v 1.000000 -2.000000 -3.000000
v 3.000000 2.000000 0.000000
v 3.000000 -2.000000 1.000000
v -7.000000 2.000000 3.000000
v -7.000000 -2.000000 3.000000
v -5.000000 2.000000 7.000000
v -5.000000 -2.000000 7.000000
vt 0.312500 0.437500
vt 0.562500 0.437500
vt 0.562500 0.312500
vt 0.312500 0.312500
vt 1.000000 0.625000
vt 0.875000 0.625000
vt 0.875000 0.375000
vt 1.000000 0.375000
vt 0.562500 0.312500
vt 0.312500 0.312500
vt 0.312500 0.437500
vt 0.562500 0.437500
vt 0.687500 0.125000
vt 0.687500 0.250000
vt 0.437500 0.250000
vt 0.437500 0.125000
vt 0.000000 0.250000
vt 0.125000 0.437500
vt 0.250000 0.187500
vt 0.125000 0.187500
vn 0.0000 1.0000 0.0000
vn 0.6276 0.0966 0.7725
vn 0.0000 -1.0000 0.0000
vn -0.5667 0.0944 -0.8185
vn 0.4602 0.3739 -0.8053
usemtl Material
s off
f 1/1/1 5/2/1 7/3/1 3/4/1
f 4/5/2 3/6/2 7/7/2 8/8/2
f 6/9/3 2/10/3 4/11/3 8/12/3
f 6/13/4 5/14/4 1/15/4 2/16/4
f 2/17/5 1/18/5 3/19/5 4/20/5
