# Blender v2.82 (sub 7) OBJ File: 'base_core_side.blend'
# www.blender.org
mtllib base_core_side.mtl
o Icosphere
v -2.000000 2.000000 -9.000000
v 7.000000 -5.999999 -6.000000
v -3.000000 -9.000000 -6.000000
v -8.999999 -0.000000 -5.000000
v -3.000000 8.000000 -6.000000
v 7.000000 6.000000 -6.000000
v -2.000000 -6.000000 -8.000000
v 2.000000 -2.000000 -9.000000
v 3.000000 -8.494622 -6.000001
v 9.000000 -0.000000 -5.000000
v 2.000000 2.000000 -9.000000
v -4.931402 0.000000 -7.999997
v -7.000000 -5.000000 -6.000000
v -2.000000 6.000000 -8.000000
v -7.000000 5.000000 -6.000000
v 3.000000 8.000000 -6.000000
v 10.000000 -2.000000 -1.000000
v 10.000000 2.000000 -1.000000
v 0.000000 -10.000000 0.000000
v 6.000000 -8.000000 0.000000
v -9.986108 -3.244632 -0.000000
v -6.000000 -8.000000 0.000000
v -6.000000 8.000000 -0.000000
v -9.986108 3.244632 0.000000
v 6.000000 8.000000 0.000000
v 0.000000 10.000000 0.000000
v -10.000001 -2.000000 -1.000000
v -8.999999 -0.000000 -5.000000
v -10.000001 2.000000 -1.000000
v -9.986108 -3.244632 -0.000000
v -16.999998 0.000000 -7.000000
v -9.986108 3.244632 0.000000
v -17.999998 -1.940894 -3.000000
v -16.999998 0.000000 -7.000000
v -17.999998 1.940894 -3.000000
v 9.986108 -3.244632 -0.000000
v 9.986108 3.244632 0.000000
v 16.999998 0.000000 -7.000000
v 17.999998 -2.000000 -3.000000
v 17.999998 2.000000 -3.000000
v 4.000000 4.000000 -8.000000
v -2.000000 2.000000 -17.000000
v -2.000000 -2.000000 -9.000000
v 4.000000 -4.000000 -8.000000
v 2.000000 -2.000000 -17.000000
v 2.000000 2.000000 -17.000000
v -2.000000 -2.000000 -17.000000
v -2.000000 2.000000 -9.000000
v 9.000000 -0.000000 -5.000000
v 2.000000 2.000000 -9.000000
v 10.000000 2.000000 -1.000000
v -8.999999 -0.000000 -5.000000
v -10.000001 2.000000 -1.000000
v -16.999998 0.000000 -7.000000
v -17.999998 1.940894 -3.000000
v 16.999998 0.000000 -7.000000
v 17.999998 2.000000 -3.000000
v -2.000000 2.000000 -17.000000
v 2.000000 2.000000 -17.000000
vt 0.125000 0.000000
vt 0.125000 0.250000
vt 0.000000 0.250000
vt 0.000000 0.000000
vt 0.187500 0.625000
vt 0.125000 0.812500
vt 0.000000 0.687500
vt 0.187500 0.687500
vt 0.000000 0.625000
vt 0.000000 0.312500
vt 0.437500 0.687500
vt 0.812500 0.687500
vt 0.625000 0.312500
vt 0.937500 0.312500
vt 1.000000 0.000000
vt 0.625000 0.125000
vt 0.437500 0.687500
vt 0.187500 0.687500
vt 0.250000 0.312500
vt 0.187500 0.687500
vt 0.437500 0.687500
vt 0.250000 0.312500
vt 0.250000 0.312500
vt 0.250000 0.312500
vt 0.000000 0.000000
vt 0.000000 0.000000
vt 0.000000 0.000000
vt 0.000000 0.000000
vt 0.625000 0.312500
vt 0.000000 0.312500
vt 0.750000 0.250000
vt 0.687500 0.312500
vt 0.062500 0.250000
vt 0.750000 0.250000
vt 0.750000 0.312500
vt 0.000000 0.312500
vt 0.187500 0.312500
vt 0.000000 0.250000
vt 0.750000 0.250000
vt 0.437500 0.312500
vt 0.375000 0.250000
vt 0.562500 0.312500
vt 0.625000 0.312500
vt 0.437500 0.312500
vt 0.312500 0.250000
vt 0.187500 0.312500
vt 0.000000 0.250000
vt 0.000000 0.250000
vt 0.062500 0.250000
vt 0.687500 0.312500
vt 0.812500 0.687500
vt 1.000000 0.000000
vt 0.625000 0.125000
vt 0.000000 0.312500
vt 0.187500 0.687500
vt 0.437500 0.687500
vt 0.812500 0.875000
vt 0.750000 0.687500
vt 1.000000 0.687500
vt 0.437500 0.875000
vt 0.375000 0.687500
vt 0.375000 0.812500
vt 0.312500 1.000000
vt 0.187500 0.843750
vt 0.000000 1.000000
vt 0.250000 1.000000
vt 0.187500 0.843750
vt 0.375000 0.812500
vt 0.187500 0.875000
vt 0.187500 0.687500
vt 0.375000 0.687500
vt 0.125000 0.812500
vt 0.187500 0.625000
vt 0.437500 0.062500
vt 0.375000 0.125000
vt 0.437500 0.187500
vt 0.125000 0.062500
vt 0.250000 0.062500
vt 0.250000 0.250000
vt 0.125000 0.250000
vt 0.812500 0.875000
vt 0.750000 0.687500
vt 1.000000 0.687500
vt 0.437500 0.875000
vt 0.375000 0.687500
vt 0.181818 0.157461
vt 0.181818 0.157461
vt 0.181818 0.157461
vt 0.181818 0.157461
vt 0.227273 0.236191
vt 0.227273 0.236191
vt 0.136363 0.236191
vt 0.136363 0.236191
vt 0.000000 0.375000
vt 0.125000 0.625000
vt 0.125000 0.312500
vt 0.000000 0.375000
vt 0.125000 0.312500
vt 0.500000 0.125000
vt 0.500000 0.062500
vt 0.437500 0.000000
vt 0.437500 0.125000
vt 0.125000 0.000000
vt 0.250000 0.000000
vt 0.250000 0.312500
vt 0.125000 0.312500
vt 0.000000 0.250000
vt 0.000000 0.000000
vt 0.125000 0.000000
vt 0.125000 0.250000
vt 0.500000 0.125000
vt 0.500000 0.062500
vt 0.437500 0.000000
vt 0.437500 0.125000
vt 0.125000 0.625000
vt 0.000000 0.375000
vt 0.125000 0.312500
vt 0.000000 0.375000
vt 0.125000 0.312500
vt 0.125000 0.000000
vt 0.125000 0.250000
vt 0.000000 0.250000
vt 0.000000 0.000000
vt 0.125000 0.000000
vt 0.250000 0.000000
vt 0.250000 0.250000
vt 0.125000 0.250000
vt 0.437500 0.937500
vt 0.625000 0.937500
vt 0.625000 0.812500
vt 0.375000 0.875000
vt 0.375000 0.937500
vt 0.375000 0.937500
vt 0.437500 0.125000
vt 0.437500 0.000000
vt 0.375000 0.000000
vt 0.625000 0.937500
vt 0.437500 0.937500
vt 0.375000 0.875000
vt 0.625000 0.812500
vt 0.125000 0.062500
vt 0.250000 0.062500
vt 0.250000 0.250000
vt 0.125000 0.250000
vt 0.125000 0.250000
vt 0.125000 0.000000
vt 0.000000 0.000000
vt 0.000000 0.250000
vt 0.125000 0.000000
vt 0.125000 0.250000
vt 0.000000 0.250000
vt 0.000000 0.000000
vt 0.125000 0.000000
vt 0.125000 0.250000
vt 0.000000 0.250000
vt 0.000000 -0.000000
vt 0.305368 0.055360
vt 0.240765 0.055360
vt 0.227273 0.078731
vn 0.0000 -1.0000 -0.0000
vn 0.5365 -0.0383 -0.8430
vn 0.9081 -0.2462 -0.3389
vn 0.0822 -0.9756 -0.2037
vn -0.8890 -0.2837 -0.3594
vn -0.5747 0.7663 -0.2873
vn 0.4364 0.8729 -0.2182
vn 0.7635 -0.6400 -0.0861
vn -0.3162 -0.9487 0.0000
vn 0.0000 0.0000 1.0000
vn -0.3123 0.9370 -0.1562
vn 0.7635 0.6400 -0.0861
vn 0.3123 0.9370 -0.1562
vn 0.0000 0.9487 -0.3162
vn -0.7524 0.6307 -0.1899
vn -0.8890 0.2837 -0.3594
vn -0.7524 -0.6307 -0.1899
vn -0.6882 -0.6882 -0.2294
vn 0.3152 -0.9457 -0.0797
vn 0.5194 -0.8329 -0.1911
vn 0.9081 0.2462 -0.3389
vn 0.2408 0.4815 -0.8427
vn 0.1576 0.4729 -0.8669
vn 0.0000 0.7071 -0.7071
vn -0.4036 0.5381 -0.7399
vn -0.3976 0.1942 -0.8968
vn -0.5917 0.0762 -0.8025
vn -0.5917 -0.0762 -0.8025
vn -0.3976 -0.1942 -0.8968
vn -0.4082 -0.4082 -0.8165
vn 0.5365 0.0383 -0.8430
vn 0.5145 0.0000 -0.8575
vn 1.0000 0.0000 0.0000
vn 0.0476 -0.5650 -0.8237
vn 0.1429 -0.4287 -0.8921
vn 0.2752 -0.4413 -0.8541
vn -0.8743 -0.3099 -0.3735
vn -0.8743 0.3099 -0.3735
vn -0.9999 0.0000 0.0139
vn -0.2425 0.0000 0.9701
vn 0.1014 -0.9023 -0.4191
vn 0.9999 0.0000 0.0139
vn 0.8743 -0.3099 -0.3735
vn 0.8743 0.3099 -0.3735
vn -0.1059 -0.8997 -0.4234
vn 0.2425 0.0000 0.9701
vn 0.0595 0.2977 -0.9528
vn -0.4446 0.2172 -0.8690
vn -0.4446 -0.2172 -0.8690
vn 0.4472 0.0000 -0.8944
vn 0.0595 -0.2977 -0.9528
vn -1.0000 0.0000 0.0000
vn -0.1059 0.8997 -0.4234
vn 0.1014 0.9023 -0.4191
vn 0.0000 1.0000 0.0000
vn -0.3229 0.0000 -0.9464
usemtl Material.001
s off
f 8/1/1 43/2/1 47/3/1 45/4/1
f 2/5/2 44/6/2 10/7/2
f 2/8/3 10/9/3 36/10/3
f 3/11/4 9/12/4 19/13/4
f 4/14/5 13/15/5 21/16/5
f 5/17/6 15/18/6 23/19/6
f 6/20/7 16/21/7 25/22/7
f 2/8/8 36/10/8 20/23/8
f 3/11/9 19/13/9 22/24/9
f 21/25/10 24/26/10 32/27/10 30/28/10
f 5/17/11 23/19/11 26/29/11
f 6/20/12 25/22/12 37/30/12
f 37/31/10 25/32/10 23/33/10
f 36/34/10 37/35/10 24/36/10
f 20/37/10 36/38/10 21/39/10
f 19/40/10 20/41/10 22/42/10
f 25/43/10 26/44/10 23/45/10
f 37/31/10 23/46/10 24/47/10
f 36/34/10 24/36/10 21/48/10
f 20/49/10 21/39/10 22/50/10
f 25/22/13 16/21/13 26/29/13
f 16/51/14 5/17/14 26/29/14
f 23/19/15 15/18/15 24/36/15
f 15/52/16 4/14/16 24/53/16
f 21/54/17 13/55/17 22/24/17
f 13/55/18 3/11/18 22/24/18
f 19/13/19 9/56/19 20/23/19
f 9/56/20 2/8/20 20/23/20
f 10/9/21 6/20/21 37/30/21
f 41/57/22 16/58/22 6/59/22
f 41/57/23 14/60/23 16/58/23
f 14/60/24 5/61/24 16/58/24
f 14/60/25 15/18/25 5/61/25
f 14/62/26 12/63/26 15/64/26
f 12/63/27 4/65/27 15/64/27
f 12/66/28 13/67/28 4/65/28
f 12/66/29 7/68/29 13/67/29
f 7/69/30 3/70/30 13/71/30
f 10/7/31 41/72/31 6/73/31
f 10/74/32 44/75/32 41/76/32
f 11/77/33 8/78/33 45/79/33 46/80/33
f 7/81/34 9/82/34 3/83/34
f 7/81/35 44/84/35 9/82/35
f 44/84/36 2/85/36 9/82/36
f 4/86/10 28/87/10 34/88/10 31/89/10
f 24/90/10 4/86/10 28/87/10 32/91/10
f 4/86/10 21/92/10 30/93/10 28/87/10
f 27/94/37 28/95/37 30/96/37
f 28/95/38 29/97/38 32/98/38
f 29/99/39 27/100/39 30/101/39 32/102/39
f 27/103/40 29/104/40 35/105/40 33/106/40
f 28/107/41 27/108/41 33/109/41 34/110/41
f 17/111/42 18/112/42 37/113/42 36/114/42
f 10/115/43 17/116/43 36/117/43
f 18/118/44 10/115/44 37/119/44
f 17/120/45 10/121/45 38/122/45 39/123/45
f 18/124/46 17/125/46 39/126/46 40/127/46
f 11/128/47 1/129/47 14/130/47 41/131/47
f 1/132/48 12/63/48 14/62/48
f 43/133/49 7/68/49 12/63/49
f 8/134/50 11/135/50 41/136/50 44/75/50
f 43/137/51 8/138/51 44/139/51 7/140/51
f 43/141/52 1/142/52 42/143/52 47/144/52
f 49/145/53 51/146/53 57/147/53 56/148/53
f 53/149/54 52/150/54 54/151/54 55/152/54
f 48/153/55 50/154/55 59/155/55 58/156/55
f 1/157/56 43/158/56 12/159/56
l 34 35
l 42 46
l 42 45
