# Blender v2.82 (sub 7) OBJ File: 'base_ball_destroyed_corner.blend'
# www.blender.org
mtllib base_ball_destroyed_corner.mtl
o Icosphere
v -0.000000 0.000000 8.000000
v 6.000000 4.000000 4.000000
v -2.000000 7.000000 4.000000
v -7.000000 0.000000 4.000000
v -2.000000 -7.000000 4.000000
v 6.000000 -4.000000 4.000000
v 4.000000 7.145453 -3.000000
v 3.000000 4.000000 3.000000
v -0.000000 -2.000000 4.000000
v 4.000000 -7.145454 -3.000000
v 7.000000 0.000000 -4.000000
v 1.000000 0.000000 -8.000000
v -0.000000 4.000000 7.000000
v 4.000000 2.000000 7.000000
v 2.000000 7.000000 4.000000
v 7.000000 0.000000 4.000000
v 4.000000 -2.000000 7.000000
v -4.000000 0.000000 7.000000
v -6.000000 4.000000 4.000000
v -0.000000 -4.000000 7.000000
v -6.000000 -4.000000 4.000000
v 2.000000 -7.000000 4.000000
v 8.000000 2.595706 0.000000
v 8.000000 -2.595706 -0.000000
v 2.000000 8.000000 2.000000
v 5.000000 6.795741 0.000001
v -7.000000 3.000000 2.000000
v -0.000000 7.000001 3.000000
v -3.000000 -7.000000 2.000000
v -6.000000 -3.000000 1.000000
v 5.000000 -6.795741 -0.000000
v 3.000000 -8.000000 1.000000
v 6.000000 4.000000 -4.000000
v 2.000000 6.795698 0.000001
v 3.000000 -1.000000 4.000000
v 2.000000 -6.795698 -0.000001
v 6.000000 -4.000000 -4.000000
v 3.000000 4.000000 -7.000000
v 4.000000 0.000000 -7.000000
v 2.000000 2.000000 -5.000000
v 3.000000 -1.000000 -2.000000
v 1.000000 -4.000000 -6.000000
vt 0.812500 0.437500
vt 0.937500 0.500000
vt 0.812500 0.562500
vt 0.562500 0.000000
vt 0.750000 0.062500
vt 0.562500 0.187500
vt 0.687500 0.437500
vt 0.812500 0.312500
vt 0.937500 0.375000
vt 0.312500 0.062500
vt 0.375000 0.875000
vt 0.625000 0.875000
vt 0.625000 1.000000
vt 0.562500 0.187500
vt 0.562500 0.000000
vt 0.312500 0.062500
vt 0.625000 0.812500
vt 0.875000 0.812500
vt 0.812500 0.562500
vt 0.125000 0.812500
vt 0.375000 0.812500
vt 0.187500 0.562500
vt 0.125000 0.812500
vt 0.000000 0.562500
vt 0.187500 0.562500
vt 0.250000 0.062500
vt 0.125000 0.125000
vt 0.125000 0.000000
vt 0.312500 0.312500
vt 0.312500 0.875000
vt 0.312500 1.000000
vt 0.562500 1.000000
vt 0.000000 0.562500
vt 0.625000 0.812500
vt 0.875000 0.812500
vt 0.500000 1.000000
vt 0.125000 0.375000
vt 0.125000 0.250000
vt 0.250000 0.312500
vt 0.312500 0.562500
vt 0.312500 0.437500
vt 0.375000 0.500000
vt 0.125000 0.125000
vt 0.125000 0.250000
vt 0.250000 0.187500
vt 0.562500 0.187500
vt 0.562500 0.437500
vt 0.750000 0.187500
vt 0.687500 0.437500
vt 0.812500 0.312500
vt 0.812500 0.437500
vt 0.750000 1.000000
vt 0.875000 0.812500
vt 0.500000 1.000000
vt 0.625000 0.812500
vt 0.187500 0.000000
vt 0.250000 0.062500
vt 0.187500 0.062500
vt 0.250000 0.312500
vt 0.125000 0.375000
vt 0.250000 0.125000
vt 0.375000 0.375000
vt 0.312500 0.375000
vt 0.187500 0.125000
vt 0.250000 0.187500
vt 0.125000 0.125000
vt 0.812500 0.562500
vt 0.562500 0.000000
vt 0.312500 0.312500
vt 1.000000 0.562500
vt 0.812500 0.562500
vt 0.125000 0.062500
vt 0.250000 0.125000
vt 0.250000 0.000000
vt 0.000000 0.187500
vt 0.000000 0.375000
vt 0.187500 0.500000
vt 0.187500 0.375000
vt 0.000000 0.375000
vt 0.000000 0.187500
vt 0.000000 0.375000
vt 0.312500 0.375000
vt 0.125000 0.437500
vt 0.812500 0.562500
vt 0.687500 0.750000
vt 1.000000 0.562500
vt 0.562500 0.625000
vt 0.375000 0.500000
vt 0.500000 0.812500
vt 0.375000 0.375000
vt 0.562500 0.875000
vt 0.000000 0.500000
vt 1.000000 0.562500
vt 0.562500 0.437500
vt 0.000000 0.500000
vt 0.000000 0.000000
vt 0.125000 0.062500
vt 0.000000 0.062500
vt 0.125000 0.875000
vt 0.500000 0.937500
vt 0.375000 0.500000
vt 0.562500 0.625000
vt 0.500000 0.812500
vt 0.375000 0.375000
vt 0.375000 0.812500
vt 0.562500 0.437500
vt 0.250000 1.000000
vt 0.500000 1.000000
vt 0.750000 1.000000
vt 0.750000 0.187500
vt 0.500000 1.000000
vt 0.875000 0.812500
vt 0.625000 0.812500
vt 0.750000 0.312500
vt 0.250000 1.000000
vn 0.1204 0.2408 0.9631
vn 0.7544 0.1886 0.6287
vn -0.2357 0.2357 0.9428
vn -0.2357 -0.2357 0.9428
vn 0.1204 -0.2408 0.9631
vn 0.9008 0.2252 0.3713
vn 0.0000 0.8944 0.4472
vn -0.9117 0.2279 0.3419
vn -0.5747 -0.7663 0.2873
vn 0.5553 -0.7404 0.3787
vn 0.7975 0.5696 0.1988
vn -0.4472 0.0000 -0.8944
vn -0.9723 -0.1296 -0.1945
vn -0.1516 -0.9855 0.0758
vn 0.7975 -0.5696 0.1988
vn 0.5862 0.5591 -0.5862
vn -0.9714 -0.1712 0.1642
vn -0.3162 0.9487 0.0000
vn -0.5508 -0.7879 -0.2753
vn 0.6963 -0.1741 -0.6963
vn 0.2857 -0.4286 -0.8571
vn 0.3308 -0.4548 -0.8269
vn 0.3280 -0.4692 -0.8199
vn -0.9264 0.1684 0.3369
vn -0.9277 0.2543 0.2731
vn -0.8944 0.0000 -0.4472
vn -0.9487 0.0000 0.3162
vn -0.9487 -0.3162 0.0000
vn -0.9927 0.0236 0.1182
vn -0.8944 0.4472 -0.0000
vn -0.9428 0.2406 -0.2308
vn -0.6549 0.6649 -0.3591
vn 0.3152 0.0788 -0.9457
vn 0.6963 0.1741 -0.6963
vn 0.9008 -0.2252 -0.3713
vn 0.7975 -0.5696 -0.1988
vn 0.7970 -0.5701 -0.1992
vn -0.5911 -0.7458 -0.3071
vn -0.2290 -0.7274 -0.6469
vn -0.3361 0.5166 -0.7875
vn 0.3015 -0.9045 -0.3015
vn 0.2691 0.2018 -0.9417
vn 0.1169 -0.1948 -0.9739
vn -0.6512 -0.6512 -0.3898
vn -0.5658 0.7063 -0.4253
vn -0.6785 0.6293 -0.3790
vn 0.7970 0.5701 -0.1992
vn 0.7975 0.5696 -0.1988
vn 0.9008 0.2252 -0.3713
vn 0.4917 -0.8685 -0.0626
vn 0.6134 -0.6649 0.4261
vn 0.0000 -0.9487 0.3162
vn 0.4317 0.0996 -0.8965
vn -0.7573 -0.6196 -0.2065
vn -0.9670 -0.2417 -0.0806
vn 0.0902 0.0902 -0.9918
vn -0.4646 0.8628 -0.1991
vn -0.3841 0.5121 -0.7682
vn 0.3649 0.9309 -0.0131
vn 0.5492 0.7475 0.3737
vn 0.5553 0.7404 0.3787
vn 0.9701 0.0000 -0.2425
vn 0.9701 -0.0000 0.2425
vn 0.9008 -0.2252 0.3713
vn 0.4386 -0.5848 0.6823
vn 0.2873 -0.5747 0.7663
vn 0.0000 -0.7071 0.7071
vn -0.3841 -0.5121 0.7682
vn -0.4082 -0.4082 0.8165
vn -0.6963 -0.1741 0.6963
vn -0.6963 0.1741 0.6963
vn -0.4082 0.4082 0.8165
vn -0.3841 0.5121 0.7682
vn 0.7544 -0.1886 0.6287
vn 0.7071 0.0000 0.7071
vn 0.2425 0.0000 0.9701
vn 0.0000 0.7071 0.7071
vn 0.2873 0.5747 0.7663
vn 0.4386 0.5848 0.6823
usemtl Material.001
s off
f 1/1/1 14/2/1 13/3/1
f 2/4/2 14/5/2 16/6/2
f 1/1/3 13/3/3 18/7/3
f 1/1/4 18/7/4 20/8/4
f 1/1/5 20/8/5 17/9/5
f 2/4/6 16/6/6 23/10/6
f 3/11/7 15/12/7 25/13/7
f 4/14/8 19/15/8 27/16/8
f 5/17/9 21/18/9 29/19/9
f 6/20/10 22/21/10 31/22/10
f 2/23/11 23/24/11 26/25/11
f 3/26/12 25/27/12 28/28/12
f 4/14/13 27/16/13 30/29/13
f 5/30/14 29/31/14 32/32/14
f 6/20/15 31/22/15 24/33/15
f 7/34/16 33/35/16 38/36/16
f 8/37/17 34/38/17 40/39/17
f 9/40/18 35/41/18 41/42/18
f 10/43/19 36/44/19 42/45/19
f 11/46/20 37/47/20 39/48/20
f 39/49/21 42/50/21 12/51/21
f 39/52/22 37/53/22 42/54/22
f 37/53/23 10/55/23 42/54/23
f 42/56/24 41/57/24 12/58/24
f 42/45/25 36/44/25 41/59/25
f 36/44/26 9/60/26 41/59/26
f 41/57/27 40/61/27 12/58/27
f 41/42/28 35/41/28 40/62/28
f 35/41/29 8/63/29 40/62/29
f 40/61/30 38/64/30 12/58/30
f 40/39/31 34/38/31 38/65/31
f 34/38/32 7/66/32 38/65/32
f 38/67/33 39/49/33 12/51/33
f 38/36/34 33/35/34 39/52/34
f 33/68/34 11/46/34 39/48/34
f 24/69/35 37/47/35 11/46/35
f 24/70/36 31/71/36 37/53/36
f 31/71/37 10/55/37 37/53/37
f 32/72/38 36/73/38 10/74/38
f 32/75/39 29/76/39 36/44/39
f 29/76/40 9/60/40 36/44/40
f 30/77/41 35/41/41 9/40/41
f 30/77/42 27/78/42 35/41/42
f 27/78/43 8/63/43 35/41/43
f 28/79/44 34/38/44 8/37/44
f 28/79/45 25/80/45 34/38/45
f 25/81/46 7/82/46 34/83/46
f 26/84/47 33/35/47 7/85/47
f 26/84/48 23/86/48 33/35/48
f 23/10/49 11/46/49 33/68/49
f 31/87/50 32/88/50 10/89/50
f 31/87/51 22/90/51 32/88/51
f 22/91/52 5/30/52 32/32/52
f 29/76/53 30/92/53 9/60/53
f 29/19/54 21/18/54 30/93/54
f 21/94/55 4/14/55 30/29/55
f 27/95/56 28/79/56 8/37/56
f 27/96/57 19/97/57 28/98/57
f 19/99/58 3/11/58 28/100/58
f 25/101/59 26/102/59 7/103/59
f 25/101/60 15/104/60 26/102/60
f 15/105/61 2/23/61 26/25/61
f 23/10/62 24/69/62 11/46/62
f 23/10/63 16/6/63 24/69/63
f 16/6/64 6/106/64 24/69/64
f 17/107/65 22/21/65 6/20/65
f 17/107/66 20/108/66 22/21/66
f 20/108/67 5/17/67 22/21/67
f 20/108/68 21/18/68 5/17/68
f 20/108/69 18/109/69 21/18/69
f 18/110/70 4/14/70 21/94/70
f 18/110/71 19/15/71 4/14/71
f 18/109/72 13/111/72 19/112/72
f 13/111/73 3/113/73 19/112/73
f 16/6/74 17/114/74 6/106/74
f 16/6/75 14/5/75 17/114/75
f 14/2/76 1/1/76 17/9/76
f 13/111/77 15/105/77 3/113/77
f 13/111/78 14/115/78 15/105/78
f 14/115/79 2/23/79 15/105/79
