# Blender v2.82 (sub 7) OBJ File: 'base_crystal.blend'
# www.blender.org
mtllib base_crystal.mtl
o Cube
v 8.000000 0.000000 -0.000000
v 0.000000 6.000000 0.000000
v -0.000000 -0.000000 5.000000
v -0.000000 -0.000000 -5.000000
v 0.000000 -6.000000 -0.000000
v -7.999999 -0.000000 0.000000
vt 0.000000 1.000000
vt 0.500000 0.500000
vt 1.000000 1.000000
vt 1.000000 0.000000
vt 0.000000 0.000000
vt 1.000000 0.000000
vt 0.500000 0.500000
vt 0.000000 1.000000
vn 0.4328 0.5771 -0.6925
vn -0.4328 0.5771 0.6925
vn -0.4328 -0.5771 -0.6925
vn -0.4328 -0.5771 0.6925
vn 0.4328 0.5771 0.6925
vn 0.4328 -0.5771 -0.6925
vn -0.4328 0.5771 -0.6925
vn 0.4328 -0.5771 0.6925
usemtl Material
s off
f 4/1/1 2/2/1 1/3/1
f 3/4/2 2/2/2 6/5/2
f 6/5/3 4/6/3 5/7/3
f 5/7/4 3/8/4 6/5/4
f 1/3/5 2/2/5 3/4/5
f 5/7/6 4/6/6 1/3/6
f 4/1/7 6/5/7 2/2/7
f 5/7/8 1/3/8 3/8/8
