# Blender v2.82 (sub 7) OBJ File: 'base_ball_destroyed_side.blend'
# www.blender.org
mtllib base_ball_destroyed_side.mtl
o Icosphere
v -0.000000 0.000000 8.000000
v 6.000000 4.000000 4.000000
v -2.000000 7.000000 4.000000
v -7.000000 0.000000 4.000000
v -2.000000 -7.000000 4.000000
v 6.000000 -4.000000 4.000000
v 2.000000 5.000000 2.000000
v -8.000000 2.595706 0.000000
v 2.000000 -5.000000 -1.000000
v 7.000000 3.000000 0.000000
v 2.500000 2.500000 1.000000
v 0.000000 4.000000 7.000000
v 4.000000 2.000000 7.000000
v 2.000000 7.000000 4.000000
v 7.000000 0.000000 4.000000
v 4.000000 -2.000000 7.000000
v -4.000000 0.000000 7.000000
v -6.000000 4.000000 4.000000
v -0.000000 -4.000000 7.000000
v -6.000000 -4.000000 4.000000
v 2.000000 -7.000000 4.000000
v 8.000000 -2.595706 -0.000000
v -0.000000 8.000000 2.000000
v 5.000000 7.000000 0.000000
v -5.000000 7.000000 2.000000
v -5.000000 -7.000000 2.000000
v -8.000000 -2.595706 -0.000000
v 5.000000 -7.000000 1.000000
v 0.000000 -8.000000 3.000000
v -2.000000 7.000000 1.000000
v -3.000000 -4.000000 1.000000
v 6.666667 -4.333333 -0.000000
v 3.777778 -2.937374 2.000000
v -3.222222 -0.937373 2.000000
v 0.444444 -3.888888 1.000000
vt 0.812500 0.437500
vt 0.937500 0.500000
vt 0.812500 0.562500
vt 0.562500 0.000000
vt 0.750000 0.062500
vt 0.562500 0.187500
vt 0.687500 0.437500
vt 0.812500 0.312500
vt 0.937500 0.375000
vt 0.312500 0.062500
vt 0.625000 0.812500
vt 0.375000 0.812500
vt 0.500000 0.625000
vt 0.562500 0.187500
vt 0.562500 0.000000
vt 0.312500 0.062500
vt 0.625000 0.812500
vt 0.875000 0.812500
vt 0.812500 0.625000
vt 0.125000 0.812500
vt 0.375000 0.812500
vt 0.187500 0.625000
vt 0.125000 0.812500
vt 0.000000 0.562500
vt 0.187500 0.625000
vt 0.812500 0.625000
vt 0.312500 0.312500
vt 0.500000 0.687500
vt 0.000000 0.562500
vt 0.187500 0.312500
vt 0.187500 0.187500
vt 0.250000 0.312500
vt 0.000000 0.312500
vt 0.187500 0.250000
vt 0.187500 0.375000
vt 0.187500 0.312500
vt 0.187500 0.375000
vt 0.250000 0.312500
vt 0.000000 0.437500
vt 0.000000 0.250000
vt 0.125000 0.375000
vt 0.187500 0.312500
vt 0.125000 0.500000
vt 0.125000 0.250000
vt 0.250000 0.437500
vt 0.250000 0.500000
vt 0.187500 0.437500
vt 0.187500 0.375000
vt 0.000000 0.312500
vt 0.000000 0.187500
vt 0.000000 0.250000
vt 0.187500 0.187500
vt 0.000000 0.312500
vt 0.000000 0.437500
vt 0.000000 0.500000
vt 0.000000 0.250000
vt 0.000000 0.437500
vt 0.000000 0.312500
vt 0.000000 0.250000
vt 0.000000 0.437500
vt 1.000000 0.562500
vt 0.562500 0.437500
vt 1.000000 0.562500
vt 0.875000 0.812500
vt 0.312500 0.312500
vt 0.562500 0.437500
vt 0.250000 1.000000
vt 0.500000 1.000000
vt 0.750000 1.000000
vt 0.750000 0.187500
vt 0.500000 1.000000
vt 0.750000 0.312500
vt 0.250000 1.000000
vn 0.1204 0.2408 0.9631
vn 0.7544 0.1886 0.6287
vn -0.2357 0.2357 0.9428
vn -0.2357 -0.2357 0.9428
vn 0.1204 -0.2408 0.9631
vn 0.9545 0.2386 0.1790
vn 0.0000 0.8944 0.4472
vn -0.9008 0.2252 0.3713
vn -0.4460 -0.5946 0.6690
vn 0.5145 -0.6860 0.5145
vn 0.8889 0.4444 0.1111
vn -0.1881 0.9407 0.2822
vn -0.9701 -0.0000 0.2425
vn -0.2540 -0.8890 0.3810
vn 0.8274 -0.5103 0.2345
vn -0.2392 0.3190 -0.9171
vn 0.2767 -0.1619 -0.9472
vn -0.0279 0.8645 -0.5019
vn -0.5607 0.0255 -0.8276
vn 0.3121 -0.1004 -0.9447
vn -0.0419 0.7899 -0.6119
vn -0.0177 0.8681 -0.4961
vn -0.2112 0.0680 -0.9751
vn -0.0100 0.3097 -0.9508
vn 0.5465 0.2955 -0.7836
vn -0.1079 -0.1079 -0.9883
vn 0.4082 0.4082 -0.8165
vn -0.1882 -0.2203 -0.9571
vn -0.0000 0.0000 -1.0000
vn 0.7597 -0.5829 -0.2883
vn 0.2487 -0.4725 -0.8455
vn -0.3937 -0.6300 -0.6694
vn 0.1081 -0.3785 -0.9193
vn -0.1228 -0.2392 -0.9632
vn -0.2656 0.5427 -0.7968
vn -0.1690 0.8452 -0.5071
vn 0.3419 0.2279 -0.9117
vn -0.4364 -0.2182 -0.8729
vn -0.0966 -0.7725 -0.6276
vn 0.3015 -0.9045 0.3015
vn 0.0000 -0.7071 0.7071
vn 0.5547 -0.0000 -0.8321
vn -0.8488 -0.4585 0.2634
vn -0.9008 -0.2252 0.3713
vn -0.8488 0.4585 0.2634
vn -0.4460 0.5946 0.6690
vn -0.4036 -0.2691 -0.8745
vn 0.2691 0.9417 0.2018
vn 0.5472 0.7295 0.4104
vn 0.9759 0.1744 0.1308
vn 0.9008 -0.2252 0.3713
vn 0.4386 -0.5848 0.6823
vn 0.2873 -0.5747 0.7663
vn -0.3841 -0.5121 0.7682
vn -0.4082 -0.4082 0.8165
vn -0.6963 -0.1741 0.6963
vn -0.6963 0.1741 0.6963
vn -0.4082 0.4082 0.8165
vn -0.3841 0.5121 0.7682
vn 0.7544 -0.1886 0.6287
vn 0.7071 0.0000 0.7071
vn 0.2425 0.0000 0.9701
vn 0.0000 0.7071 0.7071
vn 0.2873 0.5747 0.7663
vn 0.4386 0.5848 0.6823
usemtl Material.001
s off
f 1/1/1 13/2/1 12/3/1
f 2/4/2 13/5/2 15/6/2
f 1/1/3 12/3/3 17/7/3
f 1/1/4 17/7/4 19/8/4
f 1/1/5 19/8/5 16/9/5
f 2/4/6 15/6/6 10/10/6
f 3/11/7 14/12/7 23/13/7
f 4/14/8 18/15/8 8/16/8
f 5/17/9 20/18/9 26/19/9
f 6/20/10 21/21/10 28/22/10
f 2/23/11 10/24/11 24/25/11
f 3/11/12 23/13/12 25/26/12
f 4/14/13 8/16/13 27/27/13
f 5/17/14 26/19/14 29/28/14
f 6/20/15 28/22/15 22/29/15
f 7/30/16 10/31/16 11/32/16
f 8/33/17 30/34/17 34/35/17
f 9/36/18 31/37/18 35/38/18
f 10/39/19 32/40/19 33/41/19
f 33/41/20 35/42/20 11/43/20
f 33/41/21 32/40/21 35/42/21
f 32/40/22 9/44/22 35/42/22
f 35/42/23 34/45/23 11/43/23
f 35/38/24 31/37/24 34/46/24
f 31/47/25 8/33/25 34/35/25
f 34/46/26 30/48/26 11/32/26
f 30/48/27 7/30/27 11/32/27
f 11/43/28 10/39/28 33/41/28
f 22/49/29 32/40/29 10/39/29
f 22/50/30 28/51/30 32/52/30
f 28/51/31 9/36/31 32/52/31
f 29/53/32 31/37/32 9/36/32
f 29/53/33 26/54/33 31/37/33
f 26/55/34 8/33/34 31/47/34
f 25/56/35 30/34/35 8/33/35
f 25/57/36 23/58/36 30/48/36
f 23/58/37 7/30/37 30/48/37
f 24/59/38 10/31/38 7/30/38
f 28/51/39 29/53/39 9/36/39
f 28/22/40 21/21/40 29/28/40
f 21/21/41 5/17/41 29/28/41
f 26/55/42 27/60/42 8/33/42
f 26/19/43 20/18/43 27/61/43
f 20/62/44 4/14/44 27/27/44
f 8/63/45 18/64/45 25/26/45
f 18/64/46 3/11/46 25/26/46
f 23/58/47 24/59/47 7/30/47
f 23/13/48 14/12/48 24/25/48
f 14/12/49 2/23/49 24/25/49
f 10/10/50 15/6/50 22/65/50
f 15/6/51 6/66/51 22/65/51
f 16/67/52 21/21/52 6/20/52
f 16/67/53 19/68/53 21/21/53
f 19/68/41 5/17/41 21/21/41
f 19/68/54 20/18/54 5/17/54
f 19/68/55 17/69/55 20/18/55
f 17/70/56 4/14/56 20/62/56
f 17/70/57 18/15/57 4/14/57
f 17/69/58 12/71/58 18/64/58
f 12/71/59 3/11/59 18/64/59
f 15/6/60 16/72/60 6/66/60
f 15/6/61 13/5/61 16/72/61
f 13/2/62 1/1/62 16/9/62
f 12/71/63 14/12/63 3/11/63
f 12/71/64 13/73/64 14/12/64
f 13/73/65 2/23/65 14/12/65
