# Blender v2.82 (sub 7) OBJ File: 'base_arm.blend'
# www.blender.org
mtllib base_arm.mtl
o Cube
v 7.000000 2.000000 -7.000000
v 7.000000 -2.000000 -7.000000
v 9.000000 2.000000 -3.000000
v 9.000000 -2.000000 -3.000000
v -7.000000 2.000000 3.000000
v -7.000000 -2.000000 3.000000
v -5.000000 2.000000 7.000000
v -5.000000 -2.000000 7.000000
vt 0.000000 0.250000
vt 0.125000 0.250000
vt 0.125000 0.000000
vt 0.000000 0.000000
vt 0.125000 0.000000
vt 0.250000 0.000000
vt 0.250000 0.250000
vt 0.125000 0.250000
vt 0.000000 0.250000
vt 0.125000 0.250000
vt 0.000000 0.000000
vt 0.125000 0.000000
vt 0.250000 0.000000
vt 0.250000 0.250000
vn 0.0000 1.0000 0.0000
vn 0.5812 0.0000 0.8137
vn 0.0000 -1.0000 0.0000
vn -0.5812 0.0000 -0.8137
usemtl Material
s off
f 1/1/1 5/2/1 7/3/1 3/4/1
f 4/5/2 3/6/2 7/7/2 8/8/2
f 6/9/3 2/10/3 4/5/3 8/11/3
f 6/12/4 5/13/4 1/14/4 2/10/4
