# Blender v2.82 (sub 7) OBJ File: 'base_core_door.blend'
# www.blender.org
mtllib base_core_door.mtl
o Cube
v -5.000000 7.000000 -4.000000
v -5.000000 -7.000000 -4.000000
v -5.000000 7.000000 4.000000
v -5.000000 -7.000000 4.000000
v -8.000000 4.000000 -4.000000
v -8.000000 -4.000000 -4.000000
v -8.000000 4.000000 4.000000
v -8.000000 -4.000000 4.000000
v 8.000000 4.000000 -4.000000
v 8.000000 -4.000000 -4.000000
v 8.000000 4.000000 4.000000
v 8.000000 -4.000000 4.000000
v 5.000000 7.000000 -4.000000
v 5.000000 -7.000000 -4.000000
v 5.000000 7.000000 4.000000
v 5.000000 -7.000000 4.000000
vt 0.125000 0.687500
vt 0.312500 0.687500
vt 0.312500 0.875000
vt 0.125000 0.875000
vt 0.125000 0.250000
vt 0.000000 0.250000
vt -0.000000 0.000000
vt 0.125000 -0.000000
vt 0.250000 0.687500
vt 0.437500 0.687500
vt 0.437500 0.875000
vt 0.250000 0.875000
vt 0.125000 0.687500
vt 0.312500 0.687500
vt 0.312500 0.875000
vt 0.125000 0.875000
vt 0.125000 0.000000
vt 0.375000 0.000000
vt 0.375000 0.250000
vt 0.000000 -0.000000
vt 0.125000 0.000000
vt 0.125000 0.250000
vt -0.000000 0.250000
vt 0.125000 0.687500
vt 0.312500 0.687500
vt 0.312500 0.875000
vt 0.125000 0.875000
vt -0.000000 0.000000
vt 0.125000 -0.000000
vt 0.125000 0.250000
vt 0.000000 0.250000
vt 0.125000 0.000000
vt 0.375000 0.000000
vt 0.375000 0.250000
vt 0.125000 0.250000
vt 0.125000 0.687500
vt 0.312500 0.687500
vt 0.312500 0.875000
vt 0.125000 0.875000
vt 0.250000 0.687500
vt 0.437500 0.687500
vt 0.437500 0.875000
vt 0.250000 0.875000
vt 0.000000 0.250000
vt -0.000000 0.000000
vt 0.125000 -0.000000
vn -0.7071 0.7071 0.0000
vn 0.0000 0.0000 1.0000
vn -1.0000 0.0000 0.0000
vn -0.7071 -0.7071 0.0000
vn 1.0000 0.0000 0.0000
vn 0.0000 0.0000 -1.0000
vn 0.7071 0.7071 0.0000
vn 0.7071 -0.7071 0.0000
usemtl Material
s off
f 1/1/1 5/2/1 7/3/1 3/4/1
f 4/5/2 3/6/2 7/7/2 8/8/2
f 8/9/3 7/10/3 5/11/3 6/12/3
f 6/13/4 2/14/4 4/15/4 8/16/4
f 2/17/5 1/18/5 3/19/5 4/5/5
f 6/20/6 5/21/6 1/22/6 2/23/6
f 9/24/7 13/25/7 15/26/7 11/27/7
f 12/28/2 11/29/2 15/30/2 16/31/2
f 16/32/3 15/33/3 13/34/3 14/35/3
f 14/36/8 10/37/8 12/38/8 16/39/8
f 10/40/5 9/41/5 11/42/5 12/43/5
f 14/35/6 13/44/6 9/45/6 10/46/6
