# Blender v2.82 (sub 7) OBJ File: 'base_ball.blend'
# www.blender.org
mtllib base_ball.mtl
o Icosphere
v -0.000000 0.000000 8.000000
v 6.000000 4.000000 4.000000
v -2.000000 7.000000 4.000000
v -7.000000 0.000000 4.000000
v -2.000000 -7.000000 4.000000
v 6.000000 -4.000000 4.000000
v 2.000000 7.145454 -4.000000
v -6.000000 4.000000 -4.000000
v -6.000000 -4.000000 -4.000000
v 2.000000 -7.145454 -4.000000
v 7.000000 0.000000 -4.000000
v -0.000000 0.000000 -8.000000
v -0.000000 4.000000 7.000000
v 4.000000 2.000000 7.000000
v 2.000000 7.000000 4.000000
v 7.000000 0.000000 4.000000
v 4.000000 -2.000000 7.000000
v -4.000000 0.000000 7.000000
v -6.000000 4.000000 4.000000
v -0.000000 -4.000000 7.000000
v -6.000000 -4.000000 4.000000
v 2.000000 -7.000000 4.000000
v 8.000000 2.595706 0.000000
v 8.000000 -2.595706 -0.000000
v -0.000000 8.000001 0.000000
v 5.000000 6.795741 0.000001
v -8.000000 2.595706 0.000000
v -5.000000 6.795741 0.000001
v -5.000000 -6.795741 -0.000000
v -8.000000 -2.595706 -0.000000
v 5.000000 -6.795741 -0.000000
v -0.000000 -8.000001 -0.000000
v 6.000000 4.000000 -4.000000
v -2.000000 6.795698 -4.000000
v -7.000000 0.000000 -4.000000
v -2.000000 -6.795698 -4.000001
v 6.000000 -4.000000 -4.000000
v 0.000000 4.000000 -7.000000
v 4.000000 0.000000 -7.000000
v -4.000000 2.000000 -7.000000
v -4.000000 -2.000000 -7.000000
v 0.000000 -4.000000 -7.000000
vt 0.812500 0.437500
vt 0.937500 0.500000
vt 0.812500 0.562500
vt 0.562500 0.000000
vt 0.750000 0.062500
vt 0.562500 0.187500
vt 0.687500 0.437500
vt 0.812500 0.312500
vt 0.937500 0.375000
vt 0.312500 0.062500
vt 0.625000 0.812500
vt 0.375000 0.812500
vt 0.500000 0.562500
vt 0.562500 0.187500
vt 0.562500 0.000000
vt 0.312500 0.062500
vt 0.625000 0.812500
vt 0.875000 0.812500
vt 0.812500 0.562500
vt 0.125000 0.812500
vt 0.375000 0.812500
vt 0.187500 0.562500
vt 0.125000 0.812500
vt 0.000000 0.562500
vt 0.187500 0.562500
vt 0.812500 0.562500
vt 0.312500 0.312500
vt 0.500000 0.562500
vt 0.000000 0.562500
vt 0.625000 0.812500
vt 0.875000 0.812500
vt 0.500000 1.000000
vt 0.125000 0.812500
vt 0.375000 0.812500
vt 0.250000 1.000000
vt 0.562500 0.437500
vt 0.562500 0.187500
vt 0.750000 0.312500
vt 0.625000 0.812500
vt 0.375000 0.812500
vt 0.500000 1.000000
vt 0.562500 0.187500
vt 0.562500 0.437500
vt 0.750000 0.187500
vt 0.687500 0.437500
vt 0.812500 0.312500
vt 0.812500 0.437500
vt 0.750000 1.000000
vt 0.875000 0.812500
vt 0.937500 0.375000
vt 0.250000 1.000000
vt 0.125000 0.812500
vt 0.937500 0.500000
vt 0.750000 0.062500
vt 0.562500 0.000000
vt 0.812500 0.562500
vt 0.562500 0.000000
vt 0.312500 0.312500
vt 1.000000 0.562500
vt 0.812500 0.562500
vt 0.187500 0.562500
vt 0.187500 0.562500
vt 0.812500 0.562500
vt 1.000000 0.562500
vt 0.000000 0.562500
vt 1.000000 0.562500
vt 0.562500 0.437500
vt 0.000000 0.562500
vt 1.000000 0.562500
vt 0.875000 0.812500
vt 0.562500 0.437500
vt 0.250000 1.000000
vt 0.500000 1.000000
vt 0.750000 1.000000
vt 0.750000 0.187500
vt 0.500000 1.000000
vt 0.750000 0.312500
vt 0.250000 1.000000
vn 0.1204 0.2408 0.9631
vn 0.7544 0.1886 0.6287
vn -0.2357 0.2357 0.9428
vn -0.2357 -0.2357 0.9428
vn 0.1204 -0.2408 0.9631
vn 0.9008 0.2252 0.3713
vn 0.0000 0.9701 0.2425
vn -0.9008 0.2252 0.3713
vn -0.5553 -0.7404 0.3787
vn 0.5553 -0.7404 0.3787
vn 0.7975 0.5696 0.1988
vn -0.2323 0.9646 0.1250
vn -0.9701 -0.0000 0.2425
vn -0.2323 -0.9646 0.1250
vn 0.7975 -0.5696 0.1988
vn 0.3887 0.4944 -0.7775
vn -0.4198 0.6007 -0.6804
vn -0.7544 -0.1886 -0.6287
vn -0.0620 -0.7092 -0.7023
vn 0.6963 -0.1741 -0.6963
vn 0.2357 -0.2357 -0.9428
vn 0.4082 -0.4082 -0.8165
vn 0.3887 -0.4944 -0.7775
vn -0.1204 -0.2408 -0.9631
vn -0.2961 -0.5923 -0.7494
vn -0.4198 -0.6007 -0.6804
vn -0.2425 0.0000 -0.9701
vn -0.7071 0.0000 -0.7071
vn -0.7544 0.1886 -0.6287
vn -0.1204 0.2408 -0.9631
vn -0.2961 0.5923 -0.7494
vn -0.0620 0.7092 -0.7023
vn 0.2357 0.2357 -0.9428
vn 0.4082 0.4082 -0.8165
vn 0.6963 0.1741 -0.6963
vn 0.9008 -0.2252 -0.3713
vn 0.7975 -0.5696 -0.1988
vn 0.5749 -0.7311 -0.3673
vn -0.0844 -0.9650 -0.2483
vn -0.2306 -0.9575 -0.1730
vn -0.5263 -0.7531 -0.3948
vn -0.9008 -0.2252 -0.3713
vn -0.9701 0.0000 -0.2425
vn -0.9008 0.2252 -0.3713
vn -0.5263 0.7531 -0.3948
vn -0.2306 0.9575 -0.1730
vn -0.0844 0.9650 -0.2483
vn 0.5749 0.7311 -0.3673
vn 0.7975 0.5696 -0.1988
vn 0.9008 0.2252 -0.3713
vn 0.2332 -0.9682 -0.0902
vn 0.2323 -0.9646 0.1250
vn 0.0000 -0.9701 0.2425
vn -0.7975 -0.5696 -0.1988
vn -0.7975 -0.5696 0.1988
vn -0.9008 -0.2252 0.3713
vn -0.7975 0.5696 -0.1988
vn -0.7975 0.5696 0.1988
vn -0.5553 0.7404 0.3787
vn 0.2332 0.9682 -0.0902
vn 0.2323 0.9646 0.1250
vn 0.5553 0.7404 0.3787
vn 0.9701 0.0000 -0.2425
vn 0.9701 -0.0000 0.2425
vn 0.9008 -0.2252 0.3713
vn 0.4386 -0.5848 0.6823
vn 0.2873 -0.5747 0.7663
vn 0.0000 -0.7071 0.7071
vn -0.3841 -0.5121 0.7682
vn -0.4082 -0.4082 0.8165
vn -0.6963 -0.1741 0.6963
vn -0.6963 0.1741 0.6963
vn -0.4082 0.4082 0.8165
vn -0.3841 0.5121 0.7682
vn 0.7544 -0.1886 0.6287
vn 0.7071 0.0000 0.7071
vn 0.2425 0.0000 0.9701
vn 0.0000 0.7071 0.7071
vn 0.2873 0.5747 0.7663
vn 0.4386 0.5848 0.6823
usemtl Material.001
s off
f 1/1/1 14/2/1 13/3/1
f 2/4/2 14/5/2 16/6/2
f 1/1/3 13/3/3 18/7/3
f 1/1/4 18/7/4 20/8/4
f 1/1/5 20/8/5 17/9/5
f 2/4/6 16/6/6 23/10/6
f 3/11/7 15/12/7 25/13/7
f 4/14/8 19/15/8 27/16/8
f 5/17/9 21/18/9 29/19/9
f 6/20/10 22/21/10 31/22/10
f 2/23/11 23/24/11 26/25/11
f 3/11/12 25/13/12 28/26/12
f 4/14/13 27/16/13 30/27/13
f 5/17/14 29/19/14 32/28/14
f 6/20/15 31/22/15 24/29/15
f 7/30/16 33/31/16 38/32/16
f 8/33/17 34/34/17 40/35/17
f 9/36/18 35/37/18 41/38/18
f 10/39/19 36/40/19 42/41/19
f 11/42/20 37/43/20 39/44/20
f 39/45/21 42/46/21 12/47/21
f 39/48/22 37/49/22 42/41/22
f 37/49/23 10/39/23 42/41/23
f 42/46/24 41/50/24 12/47/24
f 42/41/25 36/40/25 41/51/25
f 36/40/26 9/52/26 41/51/26
f 41/50/27 40/53/27 12/47/27
f 41/38/28 35/37/28 40/54/28
f 35/37/29 8/55/29 40/54/29
f 40/53/30 38/56/30 12/47/30
f 40/35/31 34/34/31 38/32/31
f 34/34/32 7/30/32 38/32/32
f 38/56/33 39/45/33 12/47/33
f 38/32/34 33/31/34 39/48/34
f 33/57/35 11/42/35 39/44/35
f 24/58/36 37/43/36 11/42/36
f 24/59/37 31/60/37 37/49/37
f 31/60/38 10/39/38 37/49/38
f 32/28/39 36/40/39 10/39/39
f 32/28/40 29/61/40 36/40/40
f 29/61/41 9/52/41 36/40/41
f 30/27/42 35/37/42 9/36/42
f 30/27/43 27/16/43 35/37/43
f 27/16/44 8/55/44 35/37/44
f 28/62/45 34/34/45 8/33/45
f 28/62/46 25/13/46 34/34/46
f 25/13/47 7/30/47 34/34/47
f 26/63/48 33/31/48 7/30/48
f 26/63/49 23/64/49 33/31/49
f 23/10/50 11/42/50 33/57/50
f 31/60/51 32/28/51 10/39/51
f 31/22/52 22/21/52 32/28/52
f 22/21/53 5/17/53 32/28/53
f 29/61/54 30/65/54 9/52/54
f 29/19/55 21/18/55 30/66/55
f 21/67/56 4/14/56 30/27/56
f 27/68/57 28/62/57 8/33/57
f 27/69/58 19/70/58 28/26/58
f 19/70/59 3/11/59 28/26/59
f 25/13/60 26/63/60 7/30/60
f 25/13/61 15/12/61 26/25/61
f 15/12/62 2/23/62 26/25/62
f 23/10/63 24/58/63 11/42/63
f 23/10/64 16/6/64 24/58/64
f 16/6/65 6/71/65 24/58/65
f 17/72/66 22/21/66 6/20/66
f 17/72/67 20/73/67 22/21/67
f 20/73/68 5/17/68 22/21/68
f 20/73/69 21/18/69 5/17/69
f 20/73/70 18/74/70 21/18/70
f 18/75/71 4/14/71 21/67/71
f 18/75/72 19/15/72 4/14/72
f 18/74/73 13/76/73 19/70/73
f 13/76/74 3/11/74 19/70/74
f 16/6/75 17/77/75 6/71/75
f 16/6/76 14/5/76 17/77/76
f 14/2/77 1/1/77 17/9/77
f 13/76/78 15/12/78 3/11/78
f 13/76/79 14/78/79 15/12/79
f 14/78/80 2/23/80 15/12/80
