# Blender v2.82 (sub 7) OBJ File: 'enemy_i.blend'
# www.blender.org
mtllib enemy_i.mtl
o Cube
v -4.000000 0.000000 -1.000000
v -1.000000 -1.000000 -2.000000
v -7.000000 -1.000000 -1.000000
v 0.000000 0.000000 -3.000000
v 1.000000 -1.000000 -3.000000
v 3.000000 1.000000 -2.000000
v 3.000000 -1.000000 -2.000000
v 5.000000 1.000000 -2.000000
v 5.000000 0.000000 -2.000000
v 2.000000 -2.000000 -7.000000
v 3.000000 -2.000000 -7.000000
v 6.000000 3.000000 -3.000000
v 5.000000 3.000000 -2.000000
v 7.000000 3.000000 -3.000000
v 7.000000 3.000000 -2.000000
v -4.000000 0.000000 1.000000
v -1.000000 -1.000000 2.000000
v -4.000000 0.000000 0.000000
v -4.000000 -1.000000 0.000000
v -7.000000 -1.000000 1.000000
v 0.000000 0.000000 3.000000
v -7.000000 -1.000000 0.000000
v 1.000000 -1.000000 3.000000
v 0.000000 1.000000 0.000000
v 0.000000 -1.000000 0.000000
v 3.000000 1.000000 2.000000
v 3.000000 -1.000000 2.000000
v 3.000000 1.000000 0.000000
v 3.000000 -1.000000 0.000000
v 5.000000 1.000000 2.000000
v 5.000000 0.000000 2.000000
v 5.000000 1.000000 0.000000
v 5.000000 -1.000000 0.000000
v 2.000000 -2.000000 7.000000
v 3.000000 -2.000000 7.000000
v 6.000000 3.000000 3.000000
v 5.000000 3.000000 2.000000
v 7.000000 3.000000 3.000000
v 7.000000 3.000000 2.000000
vt 0.937500 0.437500
vt 0.937500 0.312500
vt 1.000000 0.312500
vt 1.000000 0.437500
vt 0.062500 0.312500
vt 0.125000 0.625000
vt 0.000000 0.500000
vt 0.000000 0.312500
vt 1.000000 0.250000
vt 0.875000 0.312500
vt 0.750000 0.250000
vt 0.687500 0.312500
vt 0.625000 0.250000
vt 0.187500 0.750000
vt 0.000000 0.750000
vt 1.000000 0.687500
vt 0.812500 0.687500
vt 0.125000 0.875000
vt 0.000000 0.875000
vt 1.000000 0.875000
vt 0.875000 0.875000
vt 0.562500 1.000000
vt 0.500000 1.000000
vt 0.437500 0.625000
vt 0.437500 0.625000
vt 0.437500 0.750000
vt 0.187500 0.750000
vt 0.187500 0.500000
vt 0.750000 0.250000
vt 0.625000 0.250000
vt 0.625000 0.062500
vt 0.750000 0.062500
vt 0.125000 1.000000
vt 0.437500 0.875000
vt 0.000000 1.000000
vt 0.562500 0.875000
vt 0.562500 0.812500
vt 0.875000 1.000000
vt 0.500000 0.312500
vt 0.437500 0.812500
vt 0.750000 0.000000
vt 0.625000 0.000000
vt 1.000000 0.000000
vt 1.000000 0.125000
vt 0.500000 0.187500
vt 0.375000 0.187500
vt 0.562500 0.062500
vt 0.625000 0.062500
vt 0.000000 0.000000
vt 0.187500 0.000000
vt 0.187500 0.250000
vt 0.000000 0.250000
vt 0.937500 0.437500
vt 0.937500 0.312500
vt 0.062500 0.312500
vt 0.125000 0.625000
vt 1.000000 0.250000
vt 0.750000 0.250000
vt 0.875000 0.312500
vt 0.625000 0.250000
vt 0.687500 0.312500
vt 0.187500 0.750000
vt 0.812500 0.687500
vt 0.125000 0.875000
vt 0.875000 0.875000
vt 0.562500 1.000000
vt 0.437500 0.625000
vt 0.500000 1.000000
vt 0.437500 0.625000
vt 0.437500 0.750000
vt 0.750000 0.062500
vt 0.625000 0.062500
vt 0.125000 1.000000
vt 0.437500 0.875000
vt 0.562500 0.812500
vt 0.562500 0.875000
vt 0.875000 1.000000
vt 0.500000 0.312500
vt 0.437500 0.812500
vt 0.750000 0.000000
vt 0.625000 0.000000
vt 1.000000 0.000000
vt 0.500000 0.187500
vt 0.625000 0.062500
vt 0.562500 0.062500
vt 0.375000 0.187500
vt 0.000000 0.250000
vt 0.187500 0.250000
vt 0.187500 0.000000
vn -0.3162 0.9487 0.0000
vn 0.0000 -1.0000 0.0000
vn -0.1474 0.4423 -0.8847
vn -0.4082 -0.4082 -0.8165
vn -0.1790 0.9545 -0.2386
vn -0.1296 0.9723 -0.1945
vn 0.9285 0.0000 -0.3714
vn 1.0000 0.0000 0.0000
vn 0.0000 0.7071 0.7071
vn 0.4402 -0.8805 0.1761
vn 0.2357 -0.9428 -0.2357
vn -0.0907 0.8619 -0.4990
vn 0.0000 0.8575 -0.5145
vn -0.7071 -0.7071 0.0000
vn -0.0697 -0.9754 0.2090
vn 0.0000 1.0000 0.0000
vn -0.6882 0.6882 -0.2294
vn 0.0000 -0.4472 -0.8944
vn 0.7071 -0.7071 0.0000
vn -0.1474 0.4423 0.8847
vn -0.4082 -0.4082 0.8165
vn -0.1790 0.9545 0.2386
vn -0.1296 0.9723 0.1945
vn 0.9285 0.0000 0.3714
vn 0.0000 0.7071 -0.7071
vn 0.4402 -0.8805 -0.1761
vn 0.2357 -0.9428 0.2357
vn -0.0907 0.8619 0.4990
vn 0.0000 0.8575 0.5145
vn -0.0697 -0.9754 -0.2090
vn -0.6882 0.6882 0.2294
vn 0.0000 -0.4472 0.8944
usemtl Material
s off
f 1/1/1 3/2/1 22/3/1 18/4/1
f 3/5/2 2/6/2 19/7/2 22/8/2
f 3/9/3 1/10/3 2/11/3
f 2/11/4 1/10/4 4/12/4 5/13/4
f 19/7/2 2/6/2 5/14/2 25/15/2
f 1/1/5 18/4/5 24/16/5 4/17/5
f 25/15/2 5/14/2 7/18/2 29/19/2
f 4/17/6 24/16/6 28/20/6 6/21/6
f 8/22/7 9/23/7 11/24/7
f 9/25/8 8/26/8 32/27/8 33/28/8
f 28/29/9 32/30/9 15/31/9 13/32/9
f 9/33/10 7/18/10 11/34/10
f 29/19/11 7/18/11 9/33/11 33/35/11
f 4/17/12 6/21/12 11/36/12 10/37/12
f 6/21/13 8/38/13 11/36/13
f 5/13/14 4/12/14 10/39/14
f 7/18/15 5/14/15 10/40/15 11/34/15
f 12/41/16 13/32/16 15/31/16 14/42/16
f 6/43/17 28/44/17 13/32/17 12/41/17
f 8/45/18 6/46/18 12/47/18 14/48/18
f 32/49/19 8/50/19 14/51/19 15/52/19
f 16/53/1 18/4/1 22/3/1 20/54/1
f 20/55/2 22/8/2 19/7/2 17/56/2
f 20/57/20 17/58/20 16/59/20
f 17/58/21 23/60/21 21/61/21 16/59/21
f 19/7/2 25/15/2 23/62/2 17/56/2
f 16/53/22 21/63/22 24/16/22 18/4/22
f 25/15/2 29/19/2 27/64/2 23/62/2
f 21/63/23 26/65/23 28/20/23 24/16/23
f 30/66/24 35/67/24 31/68/24
f 31/69/8 33/28/8 32/27/8 30/70/8
f 28/29/25 37/71/25 39/72/25 32/30/25
f 31/73/26 35/74/26 27/64/26
f 29/19/27 33/35/27 31/73/27 27/64/27
f 21/63/28 34/75/28 35/76/28 26/65/28
f 26/65/29 35/76/29 30/77/29
f 23/60/14 34/78/14 21/61/14
f 27/64/30 35/74/30 34/79/30 23/62/30
f 36/80/16 38/81/16 39/72/16 37/71/16
f 26/82/31 36/80/31 37/71/31 28/44/31
f 30/83/32 38/84/32 36/85/32 26/86/32
f 32/49/19 39/87/19 38/88/19 30/89/19
