# Blender v2.82 (sub 7) OBJ File: 'enemy_e.blend'
# www.blender.org
mtllib enemy_e.mtl
o Cube
v -6.000000 1.000000 -1.500000
v -8.000000 0.500000 -0.500000
v -1.000000 1.500000 -2.500000
v 6.000000 1.500000 -2.500000
v 7.000000 1.000000 -1.500000
v 1.000000 3.500000 -0.500000
v 5.000000 3.500000 -0.500000
v 1.000000 2.000000 -0.500000
v 5.000000 2.000000 -0.500000
v -4.000000 2.500000 -0.500000
v -2.000000 3.500000 -0.500000
v -4.000000 1.500000 -0.500000
v -2.000000 2.000000 -0.500000
v 1.000000 2.350611 -3.014152
v 5.000000 2.350611 -3.014152
v 1.000000 1.475634 -3.498315
v 5.000000 1.475634 -3.498315
v 1.000000 1.624366 -1.701685
v 5.000000 1.624366 -1.701685
v 1.000000 0.749389 -2.185848
v 5.000000 0.749389 -2.185848
v -4.000000 1.650611 -1.714152
v -2.000000 2.050611 -2.514152
v -4.000000 0.775633 -2.198315
v -2.000000 1.175633 -2.998315
v -4.000000 1.324367 -1.201685
v -2.000000 1.324367 -1.201685
v -4.000000 0.449389 -1.685848
v -2.000000 0.449389 -1.685848
v -6.000000 1.000000 1.500000
v -6.000000 1.500000 0.000000
v -8.000000 0.500000 0.500000
v -8.000000 0.500000 0.000000
v -1.000000 1.500000 2.500000
v -1.000000 2.500000 0.000000
v 6.000000 1.500000 2.500000
v 6.000000 2.500000 0.000000
v 7.000000 1.000000 1.500000
v 7.000000 1.500000 0.000000
v 1.000000 3.500000 0.000000
v 5.000000 3.500000 0.000000
v 1.000000 3.500000 0.500000
v 5.000000 3.500000 0.500000
v 1.000000 2.000000 0.000000
v 5.000000 2.000000 0.000000
v 1.000000 2.000000 0.500000
v 5.000000 2.000000 0.500000
v -4.000000 2.500000 0.000000
v -2.000000 3.500000 0.000000
v -4.000000 2.500000 0.500000
v -2.000000 3.500000 0.500000
v -4.000000 1.500000 0.000000
v -2.000000 2.000000 0.000000
v -4.000000 1.500000 0.500000
v -2.000000 2.000000 0.500000
v 1.000000 2.350611 3.014152
v 5.000000 2.350611 3.014152
v 1.000000 1.475634 3.498315
v 5.000000 1.475634 3.498315
v 1.000000 1.624366 1.701685
v 5.000000 1.624366 1.701685
v 1.000000 0.749389 2.185848
v 5.000000 0.749389 2.185848
v -4.000000 1.650611 1.714152
v -2.000000 2.050611 2.514152
v -4.000000 0.775633 2.198315
v -2.000000 1.175633 2.998315
v -4.000000 1.324367 1.201685
v -2.000000 1.324367 1.201685
v -4.000000 0.449389 1.685848
v -2.000000 0.449389 1.685848
v -6.000000 -1.000000 -1.500000
v -6.000000 0.000000 -1.500000
v -8.000000 -0.500000 -0.500000
v -8.000000 0.000000 -0.500000
v -1.000000 -1.500000 -2.500000
v -1.000000 0.000000 -2.500000
v 6.000000 -1.500000 -2.500000
v 6.000000 0.000000 -2.500000
v 7.000000 -1.000000 -1.500000
v 7.000000 0.000000 -1.500000
v 1.000000 -3.500000 -0.500000
v 5.000000 -3.500000 -0.500000
v 1.000000 -2.000000 -0.500000
v 5.000000 -2.000000 -0.500000
v -4.000000 -2.500000 -0.500000
v -2.000000 -3.500000 -0.500000
v -4.000000 -1.500000 -0.500000
v -2.000000 -2.000000 -0.500000
v 1.000000 -2.350611 -3.014152
v 5.000000 -2.350611 -3.014152
v 1.000000 -1.475634 -3.498315
v 5.000000 -1.475634 -3.498315
v 1.000000 -1.624366 -1.701685
v 5.000000 -1.624366 -1.701685
v 1.000000 -0.749389 -2.185848
v 5.000000 -0.749389 -2.185848
v -4.000000 -1.650611 -1.714152
v -2.000000 -2.050611 -2.514152
v -4.000000 -0.775633 -2.198315
v -2.000000 -1.175633 -2.998315
v -4.000000 -1.324367 -1.201685
v -2.000000 -1.324367 -1.201685
v -4.000000 -0.449389 -1.685848
v -2.000000 -0.449389 -1.685848
v -6.000000 -1.000000 1.500000
v -6.000000 0.000000 1.500000
v -6.000000 -1.500000 0.000000
v -8.000000 -0.500000 0.500000
v -8.000000 0.000000 0.500000
v -8.000000 -0.500000 0.000000
v -8.000000 0.000000 0.000000
v -1.000000 -1.500000 2.500000
v -1.000000 0.000000 2.500000
v -1.000000 -2.500000 0.000000
v 6.000000 -1.500000 2.500000
v 6.000000 0.000000 2.500000
v 6.000000 -2.500000 0.000000
v 7.000000 -1.000000 1.500000
v 7.000000 0.000000 1.500000
v 7.000000 -1.500000 0.000000
v 7.000000 0.000000 0.000000
v 1.000000 -3.500000 0.000000
v 5.000000 -3.500000 0.000000
v 1.000000 -3.500000 0.500000
v 5.000000 -3.500000 0.500000
v 1.000000 -2.000000 0.000000
v 5.000000 -2.000000 0.000000
v 1.000000 -2.000000 0.500000
v 5.000000 -2.000000 0.500000
v -4.000000 -2.500000 0.000000
v -2.000000 -3.500000 0.000000
v -4.000000 -2.500000 0.500000
v -2.000000 -3.500000 0.500000
v -4.000000 -1.500000 0.000000
v -2.000000 -2.000000 0.000000
v -4.000000 -1.500000 0.500000
v -2.000000 -2.000000 0.500000
v 1.000000 -2.350611 3.014152
v 5.000000 -2.350611 3.014152
v 1.000000 -1.475634 3.498315
v 5.000000 -1.475634 3.498315
v 1.000000 -1.624366 1.701685
v 5.000000 -1.624366 1.701685
v 1.000000 -0.749389 2.185848
v 5.000000 -0.749389 2.185848
v -4.000000 -1.650611 1.714152
v -2.000000 -2.050611 2.514152
v -4.000000 -0.775633 2.198315
v -2.000000 -1.175633 2.998315
v -4.000000 -1.324367 1.201685
v -2.000000 -1.324367 1.201685
v -4.000000 -0.449389 1.685848
v -2.000000 -0.449389 1.685848
vt 0.187500 0.125000
vt 0.062500 0.062500
vt 0.062500 0.000000
vt 0.187500 0.000000
vt 0.000000 0.000000
vt 0.000000 0.062500
vt 0.125000 0.187500
vt 0.000000 0.187500
vt 0.125000 0.500000
vt 0.000000 0.500000
vt 0.500000 0.000000
vt 0.500000 0.187500
vt 0.437500 0.437500
vt 0.125000 0.562500
vt 0.125000 0.375000
vt 0.312500 0.312500
vt 0.937500 0.000000
vt 0.937500 0.187500
vt 0.125000 0.937500
vt 0.000000 0.937500
vt 0.312500 0.187500
vt 0.125000 0.187500
vt 0.437500 0.187500
vt 0.750000 0.312500
vt 0.750000 0.812500
vt 0.812500 0.812500
vt 0.812500 0.312500
vt 0.625000 0.812500
vt 0.750000 0.812500
vt 0.750000 0.312500
vt 0.625000 0.312500
vt 0.812500 0.812500
vt 0.812500 0.937500
vt 0.750000 0.937500
vt 0.750000 0.812500
vt 0.812500 0.187500
vt 0.750000 0.187500
vt 0.812500 0.312500
vt 0.812500 0.562500
vt 0.750000 0.562500
vt 0.750000 0.312500
vt 0.625000 0.562500
vt 0.625000 0.312500
vt 0.750000 0.812500
vt 0.750000 0.937500
vt 0.812500 0.937500
vt 0.812500 0.812500
vt 0.750000 0.187500
vt 0.812500 0.187500
vt 0.875000 0.312500
vt 0.875000 0.812500
vt 0.750000 0.812500
vt 0.750000 0.312500
vt 0.750000 0.312500
vt 0.625000 0.312500
vt 0.625000 0.812500
vt 0.750000 0.812500
vt 1.000000 0.312500
vt 0.875000 0.312500
vt 0.875000 0.812500
vt 1.000000 0.812500
vt 0.875000 0.937500
vt 0.750000 0.937500
vt 0.750000 0.187500
vt 0.875000 0.187500
vt 0.750000 0.312500
vt 0.750000 0.562500
vt 0.875000 0.562500
vt 0.875000 0.312500
vt 1.000000 0.562500
vt 1.000000 0.312500
vt 0.875000 0.312500
vt 1.000000 0.312500
vt 1.000000 0.562500
vt 0.875000 0.562500
vt 0.875000 0.812500
vt 0.875000 0.937500
vt 0.750000 0.937500
vt 0.750000 0.812500
vt 0.750000 0.312500
vt 0.750000 0.187500
vt 0.875000 0.187500
vt 0.187500 0.125000
vt 0.062500 0.062500
vt 0.000000 0.062500
vt 0.000000 0.187500
vt 0.125000 0.187500
vt 0.000000 0.500000
vt 0.125000 0.500000
vt 0.500000 0.187500
vt 0.437500 0.437500
vt 0.312500 0.312500
vt 0.937500 0.187500
vt 0.000000 0.937500
vt 0.125000 0.937500
vt 0.312500 0.187500
vt 0.437500 0.187500
vt 0.812500 0.312500
vt 0.812500 0.812500
vt 0.625000 0.812500
vt 0.625000 0.312500
vt 0.750000 0.312500
vt 0.750000 0.812500
vt 0.750000 0.812500
vt 0.750000 0.937500
vt 0.812500 0.187500
vt 0.750000 0.312500
vt 0.750000 0.562500
vt 0.625000 0.312500
vt 0.625000 0.562500
vt 0.812500 0.812500
vt 0.812500 0.937500
vt 0.750000 0.187500
vt 0.875000 0.312500
vt 0.750000 0.312500
vt 0.750000 0.812500
vt 0.875000 0.812500
vt 0.750000 0.312500
vt 0.750000 0.812500
vt 0.625000 0.812500
vt 0.625000 0.312500
vt 1.000000 0.312500
vt 1.000000 0.812500
vt 0.875000 0.812500
vt 0.875000 0.312500
vt 0.750000 0.937500
vt 0.875000 0.937500
vt 0.875000 0.187500
vt 0.750000 0.187500
vt 0.750000 0.312500
vt 0.875000 0.312500
vt 0.875000 0.562500
vt 0.750000 0.562500
vt 1.000000 0.312500
vt 1.000000 0.562500
vt 0.875000 0.312500
vt 0.875000 0.562500
vt 1.000000 0.562500
vt 1.000000 0.312500
vt 0.875000 0.812500
vt 0.750000 0.812500
vt 0.750000 0.937500
vt 0.875000 0.937500
vt 0.750000 0.312500
vt 0.875000 0.187500
vt 0.750000 0.187500
vt 0.187500 0.125000
vt 0.187500 0.000000
vt 0.062500 0.000000
vt 0.062500 0.062500
vt 0.125000 0.187500
vt 0.125000 0.500000
vt 0.500000 0.187500
vt 0.500000 0.000000
vt 0.437500 0.437500
vt 0.312500 0.312500
vt 0.125000 0.375000
vt 0.125000 0.562500
vt 0.937500 0.187500
vt 0.937500 0.000000
vt 0.125000 0.937500
vt 0.750000 0.312500
vt 0.812500 0.312500
vt 0.812500 0.812500
vt 0.750000 0.812500
vt 0.625000 0.812500
vt 0.625000 0.312500
vt 0.750000 0.312500
vt 0.750000 0.812500
vt 0.812500 0.812500
vt 0.750000 0.812500
vt 0.750000 0.937500
vt 0.812500 0.937500
vt 0.750000 0.187500
vt 0.812500 0.187500
vt 0.812500 0.312500
vt 0.750000 0.312500
vt 0.750000 0.562500
vt 0.812500 0.562500
vt 0.625000 0.312500
vt 0.625000 0.562500
vt 0.750000 0.812500
vt 0.812500 0.812500
vt 0.812500 0.937500
vt 0.750000 0.937500
vt 0.812500 0.187500
vt 0.750000 0.187500
vt 0.875000 0.312500
vt 0.750000 0.312500
vt 0.750000 0.812500
vt 0.875000 0.812500
vt 0.750000 0.312500
vt 0.750000 0.812500
vt 0.625000 0.812500
vt 0.625000 0.312500
vt 1.000000 0.312500
vt 1.000000 0.812500
vt 0.875000 0.812500
vt 0.875000 0.312500
vt 0.750000 0.937500
vt 0.875000 0.937500
vt 0.875000 0.187500
vt 0.750000 0.187500
vt 0.750000 0.312500
vt 0.875000 0.312500
vt 0.875000 0.562500
vt 0.750000 0.562500
vt 1.000000 0.312500
vt 1.000000 0.562500
vt 0.875000 0.312500
vt 0.875000 0.562500
vt 1.000000 0.562500
vt 1.000000 0.312500
vt 0.875000 0.812500
vt 0.750000 0.812500
vt 0.750000 0.937500
vt 0.875000 0.937500
vt 0.750000 0.312500
vt 0.875000 0.187500
vt 0.750000 0.187500
vt 0.187500 0.125000
vt 0.062500 0.062500
vt 0.125000 0.187500
vt 0.125000 0.500000
vt 0.500000 0.187500
vt 0.437500 0.437500
vt 0.312500 0.312500
vt 0.937500 0.187500
vt 0.125000 0.937500
vt 0.812500 0.812500
vt 0.812500 0.312500
vt 0.625000 0.812500
vt 0.750000 0.812500
vt 0.750000 0.312500
vt 0.625000 0.312500
vt 0.750000 0.937500
vt 0.750000 0.812500
vt 0.812500 0.187500
vt 0.750000 0.562500
vt 0.750000 0.312500
vt 0.625000 0.562500
vt 0.625000 0.312500
vt 0.812500 0.937500
vt 0.812500 0.812500
vt 0.750000 0.187500
vt 0.875000 0.312500
vt 0.875000 0.812500
vt 0.750000 0.812500
vt 0.750000 0.312500
vt 0.750000 0.312500
vt 0.625000 0.312500
vt 0.625000 0.812500
vt 0.750000 0.812500
vt 1.000000 0.312500
vt 0.875000 0.312500
vt 0.875000 0.812500
vt 1.000000 0.812500
vt 0.875000 0.937500
vt 0.750000 0.937500
vt 0.750000 0.187500
vt 0.875000 0.187500
vt 0.750000 0.312500
vt 0.750000 0.562500
vt 0.875000 0.562500
vt 0.875000 0.312500
vt 1.000000 0.562500
vt 1.000000 0.312500
vt 0.875000 0.312500
vt 1.000000 0.312500
vt 1.000000 0.562500
vt 0.875000 0.562500
vt 0.875000 0.812500
vt 0.875000 0.937500
vt 0.750000 0.937500
vt 0.750000 0.812500
vt 0.750000 0.312500
vt 0.750000 0.187500
vt 0.875000 0.187500
vn -0.3907 0.8930 -0.2233
vn -1.0000 0.0000 0.0000
vn -0.4472 0.0000 -0.8944
vn -0.1961 0.0000 -0.9806
vn -0.1729 0.9222 -0.3458
vn 0.6597 0.7037 -0.2639
vn 0.0000 0.9285 -0.3714
vn 0.0000 0.0000 -1.0000
vn 1.0000 0.0000 0.0000
vn 0.7071 0.0000 -0.7071
vn 0.0000 1.0000 0.0000
vn -0.4472 0.8944 0.0000
vn 0.0000 0.4842 -0.8750
vn 0.0000 -0.8750 -0.4842
vn 0.0000 0.8750 0.4842
vn -0.4080 0.4420 -0.7989
vn -0.0133 -0.8662 -0.4996
vn 0.0133 0.8662 0.4996
vn -0.3907 0.8930 0.2233
vn -0.4472 0.0000 0.8944
vn -0.1961 0.0000 0.9806
vn -0.1729 0.9222 0.3458
vn 0.6597 0.7037 0.2639
vn 0.0000 0.9285 0.3714
vn 0.0000 0.0000 1.0000
vn 0.7071 0.0000 0.7071
vn 0.0000 0.4842 0.8750
vn 0.0000 -0.8750 0.4842
vn 0.0000 0.8750 -0.4842
vn -0.4080 0.4420 0.7989
vn -0.0133 -0.8662 0.4996
vn 0.0133 0.8662 -0.4996
vn -0.3907 -0.8930 -0.2233
vn -0.1729 -0.9222 -0.3458
vn 0.6597 -0.7037 -0.2639
vn 0.0000 -0.9285 -0.3714
vn 0.0000 -1.0000 0.0000
vn -0.4472 -0.8944 0.0000
vn 0.0000 -0.4842 -0.8750
vn -0.4080 -0.4420 -0.7989
vn -0.0133 0.8662 -0.4996
vn 0.0133 -0.8662 0.4996
vn -0.3907 -0.8930 0.2233
vn -0.1729 -0.9222 0.3458
vn 0.6597 -0.7037 0.2639
vn 0.0000 -0.9285 0.3714
vn 0.0000 -0.4842 0.8750
vn -0.4080 -0.4420 0.7989
vn -0.0133 0.8662 0.4996
vn 0.0133 -0.8662 -0.4996
usemtl Material
s off
f 1/1/1 2/2/1 33/3/1 31/4/1
f 112/5/2 33/3/2 2/2/2 75/6/2
f 75/6/3 2/2/3 1/7/3 73/8/3
f 73/8/4 1/7/4 3/9/4 77/10/4
f 1/1/5 31/4/5 35/11/5 3/12/5
f 4/13/6 37/14/6 39/15/6 5/16/6
f 3/12/7 35/11/7 37/17/7 4/18/7
f 77/10/8 3/9/8 4/19/8 79/20/8
f 81/21/9 5/16/9 39/15/9 122/22/9
f 79/23/10 4/13/10 5/16/10 81/21/10
f 40/24/11 41/25/11 7/26/11 6/27/11
f 7/28/8 9/29/8 8/30/8 6/31/8
f 41/32/9 45/33/9 9/34/9 7/35/9
f 6/27/2 8/36/2 44/37/2 40/24/2
f 48/38/12 49/39/12 11/40/12 10/41/12
f 11/40/8 13/42/8 12/43/8 10/41/8
f 49/44/9 53/45/9 13/46/9 11/47/9
f 10/41/2 12/48/2 52/49/2 48/38/2
f 14/50/13 15/51/13 17/52/13 16/53/13
f 17/54/14 21/55/14 20/56/14 16/57/14
f 14/58/15 18/59/15 19/60/15 15/61/15
f 15/51/9 19/62/9 21/63/9 17/52/9
f 16/53/2 20/64/2 18/65/2 14/50/2
f 22/66/16 23/67/16 25/68/16 24/69/16
f 25/68/17 29/70/17 28/71/17 24/69/17
f 22/72/18 26/73/18 27/74/18 23/75/18
f 23/76/9 27/77/9 29/78/9 25/79/9
f 24/80/2 28/81/2 26/82/2 22/72/2
f 30/83/19 31/4/19 33/3/19 32/84/19
f 112/5/2 110/85/2 32/84/2 33/3/2
f 110/85/20 107/86/20 30/87/20 32/84/20
f 107/86/21 114/88/21 34/89/21 30/87/21
f 30/83/22 34/90/22 35/11/22 31/4/22
f 36/91/23 38/92/23 39/15/23 37/14/23
f 34/90/24 36/93/24 37/17/24 35/11/24
f 114/88/25 117/94/25 36/95/25 34/89/25
f 120/96/9 122/22/9 39/15/9 38/92/9
f 117/97/26 120/96/26 38/92/26 36/91/26
f 40/24/11 42/98/11 43/99/11 41/25/11
f 43/100/25 42/101/25 46/102/25 47/103/25
f 41/32/9 43/104/9 47/105/9 45/33/9
f 42/98/2 40/24/2 44/37/2 46/106/2
f 48/38/12 50/107/12 51/108/12 49/39/12
f 51/108/25 50/107/25 54/109/25 55/110/25
f 49/44/9 51/111/9 55/112/9 53/45/9
f 50/107/2 48/38/2 52/49/2 54/113/2
f 56/114/27 58/115/27 59/116/27 57/117/27
f 59/118/28 58/119/28 62/120/28 63/121/28
f 56/122/29 57/123/29 61/124/29 60/125/29
f 57/117/9 59/116/9 63/126/9 61/127/9
f 58/115/2 56/114/2 60/128/2 62/129/2
f 64/130/30 66/131/30 67/132/30 65/133/30
f 67/132/31 66/131/31 70/134/31 71/135/31
f 64/136/32 65/137/32 69/138/32 68/139/32
f 65/140/9 67/141/9 71/142/9 69/143/9
f 66/144/2 64/136/2 68/145/2 70/146/2
f 72/147/33 108/148/33 111/149/33 74/150/33
f 112/5/2 75/6/2 74/150/2 111/149/2
f 75/6/3 73/8/3 72/151/3 74/150/3
f 73/8/4 77/10/4 76/152/4 72/151/4
f 72/147/34 76/153/34 115/154/34 108/148/34
f 78/155/35 80/156/35 121/157/35 118/158/35
f 76/153/36 78/159/36 118/160/36 115/154/36
f 77/10/8 79/20/8 78/161/8 76/152/8
f 81/21/9 122/22/9 121/157/9 80/156/9
f 79/23/10 81/21/10 80/156/10 78/155/10
f 123/162/37 82/163/37 83/164/37 124/165/37
f 83/166/8 82/167/8 84/168/8 85/169/8
f 124/170/9 83/171/9 85/172/9 128/173/9
f 82/163/2 123/162/2 127/174/2 84/175/2
f 131/176/38 86/177/38 87/178/38 132/179/38
f 87/178/8 86/177/8 88/180/8 89/181/8
f 132/182/9 87/183/9 89/184/9 136/185/9
f 86/177/2 131/176/2 135/186/2 88/187/2
f 90/188/39 92/189/39 93/190/39 91/191/39
f 93/192/29 92/193/29 96/194/29 97/195/29
f 90/196/28 91/197/28 95/198/28 94/199/28
f 91/191/9 93/190/9 97/200/9 95/201/9
f 92/189/2 90/188/2 94/202/2 96/203/2
f 98/204/40 100/205/40 101/206/40 99/207/40
f 101/206/41 100/205/41 104/208/41 105/209/41
f 98/210/42 99/211/42 103/212/42 102/213/42
f 99/214/9 101/215/9 105/216/9 103/217/9
f 100/218/2 98/210/2 102/219/2 104/220/2
f 106/221/43 109/222/43 111/149/43 108/148/43
f 112/5/2 111/149/2 109/222/2 110/85/2
f 110/85/20 109/222/20 106/223/20 107/86/20
f 107/86/21 106/223/21 113/224/21 114/88/21
f 106/221/44 108/148/44 115/154/44 113/225/44
f 116/226/45 118/158/45 121/157/45 119/227/45
f 113/225/46 115/154/46 118/160/46 116/228/46
f 114/88/25 113/224/25 116/229/25 117/94/25
f 120/96/9 119/227/9 121/157/9 122/22/9
f 117/97/26 116/226/26 119/227/26 120/96/26
f 123/162/37 124/165/37 126/230/37 125/231/37
f 126/232/25 130/233/25 129/234/25 125/235/25
f 124/170/9 128/173/9 130/236/9 126/237/9
f 125/231/2 129/238/2 127/174/2 123/162/2
f 131/176/38 132/179/38 134/239/38 133/240/38
f 134/239/25 138/241/25 137/242/25 133/240/25
f 132/182/9 136/185/9 138/243/9 134/244/9
f 133/240/2 137/245/2 135/186/2 131/176/2
f 139/246/47 140/247/47 142/248/47 141/249/47
f 142/250/15 146/251/15 145/252/15 141/253/15
f 139/254/14 143/255/14 144/256/14 140/257/14
f 140/247/9 144/258/9 146/259/9 142/248/9
f 141/249/2 145/260/2 143/261/2 139/246/2
f 147/262/48 148/263/48 150/264/48 149/265/48
f 150/264/49 154/266/49 153/267/49 149/265/49
f 147/268/50 151/269/50 152/270/50 148/271/50
f 148/272/9 152/273/9 154/274/9 150/275/9
f 149/276/2 153/277/2 151/278/2 147/268/2
