# Blender v2.82 (sub 7) OBJ File: 'enemy_spy.blend'
# www.blender.org
mtllib enemy_spy.mtl
o Cube
v -3.000000 0.000000 -4.000000
v -7.000000 0.000000 -1.000000
v 1.000000 0.000000 -6.000000
v 1.000000 -1.000000 -6.000000
v 1.000000 2.000000 -3.000000
v 3.000000 0.000000 -3.000000
v 4.000000 1.000000 -1.000000
v 4.000000 0.000000 -1.000000
v 3.000000 0.000000 -6.000000
v 3.000000 -1.000000 -6.000000
v 1.000000 1.000000 -4.000000
v 3.000000 0.000000 -4.000000
v 5.000000 -1.000000 -6.000000
v 5.000000 0.000000 -5.000000
v 6.000000 1.000000 -1.000000
v 6.000000 0.000000 -1.000000
v -3.000000 0.000000 3.000000
v -3.000000 1.500000 -0.500000
v -3.000000 -1.000000 -0.500000
v -7.000000 0.000000 0.000000
v -7.000000 0.000000 -0.500000
v 1.000000 0.000000 5.000000
v 1.000000 -1.000000 5.000000
v 1.000000 2.000000 -0.500000
v 0.000000 -1.000000 -0.500000
v 4.000000 1.000000 -0.500000
v 1.000000 2.000000 2.000000
v 3.000000 0.000000 2.000000
v 4.000000 0.000000 -0.500000
v 4.000000 1.000000 0.000000
v 4.000000 0.000000 0.000000
v 3.000000 0.000000 5.000000
v 3.000000 -1.000000 5.000000
v 1.000000 1.000000 3.000000
v 3.000000 0.000000 3.000000
v 5.000000 -1.000000 5.000000
v 5.000000 0.000000 4.000000
v 6.000000 1.000000 -0.500000
v 6.000000 0.000000 -0.500000
v 6.000000 1.000000 0.000000
v 6.000000 0.000000 0.000000
vt 0.625000 0.250000
vt 0.812500 0.000000
vt 0.843750 0.000000
vt 0.843750 0.250000
vt 0.437500 0.812500
vt 0.250000 0.562500
vt 0.468750 0.562500
vt 0.468750 0.812500
vt 0.812500 0.687500
vt 0.843750 0.687500
vt 0.843750 0.812500
vt 0.812500 0.812500
vt 0.000000 0.000000
vt 0.000000 0.250000
vt 0.062500 0.250000
vt 0.125000 0.312500
vt 0.312500 0.187500
vt 0.468750 0.375000
vt 0.843750 0.500000
vt 0.687500 0.500000
vt 0.500000 0.937500
vt 0.687500 0.937500
vt 0.625000 0.937500
vt 0.500000 1.000000
vt 0.125000 0.187500
vt 0.250000 0.187500
vt 0.437500 0.125000
vt 0.468750 0.125000
vt 0.687500 0.625000
vt 0.750000 0.687500
vt 0.000000 0.437500
vt 0.062500 0.437500
vt 0.000000 0.562500
vt 0.000000 0.250000
vt 0.062500 0.250000
vt 0.625000 0.625000
vt 0.625000 0.500000
vt 0.562500 0.500000
vt 0.562500 0.750000
vt 0.500000 0.625000
vt 0.500000 0.750000
vt 0.125000 0.062500
vt 0.187500 0.062500
vt 0.843750 0.875000
vt 0.812500 0.875000
vt 0.812500 0.812500
vt 0.843750 0.812500
vt 0.750000 0.812500
vt 0.437500 0.000000
vt 0.468750 0.000000
vt 0.500000 0.500000
vt 0.625000 0.250000
vt 0.812500 0.000000
vt 0.437500 0.812500
vt 0.250000 0.562500
vt 0.812500 0.687500
vt 0.812500 0.812500
vt 0.000000 0.000000
vt 0.062500 0.250000
vt 0.000000 0.250000
vt 0.125000 0.312500
vt 0.312500 0.187500
vt 0.687500 0.500000
vt 0.500000 0.937500
vt 0.500000 1.000000
vt 0.625000 0.937500
vt 0.687500 0.937500
vt 0.250000 0.187500
vt 0.125000 0.187500
vt 0.437500 0.125000
vt 0.687500 0.625000
vt 0.750000 0.687500
vt 0.000000 0.437500
vt 0.000000 0.562500
vt 0.062500 0.437500
vt 0.000000 0.250000
vt 0.062500 0.250000
vt 0.625000 0.500000
vt 0.625000 0.625000
vt 0.562500 0.500000
vt 0.562500 0.750000
vt 0.500000 0.625000
vt 0.500000 0.750000
vt 0.187500 0.062500
vt 0.125000 0.062500
vt 0.843750 0.875000
vt 0.812500 0.875000
vt 0.750000 0.812500
vt 0.437500 0.000000
vt 0.500000 0.500000
vn -0.2937 0.8950 -0.3356
vn -0.2076 -0.9490 -0.2373
vn 0.0000 1.0000 0.0000
vn -0.4472 0.0000 -0.8944
vn 0.3648 -0.9287 0.0663
vn -0.1240 0.9923 0.0000
vn 0.2182 0.8729 -0.4364
vn 0.1562 -0.9370 0.3123
vn 0.3162 0.9487 0.0000
vn 0.2306 -0.9687 -0.0923
vn 0.6838 0.4558 -0.5698
vn 0.0000 0.0000 -1.0000
vn 0.5571 0.7428 -0.3714
vn 0.3333 0.6667 0.6667
vn 0.1374 -0.8242 0.5494
vn 1.0000 0.0000 0.0000
vn 0.0000 -1.0000 0.0000
vn 0.0000 -0.9615 -0.2747
vn -0.2648 -0.9631 -0.0482
vn -0.2673 0.8018 -0.5345
vn -0.3396 0.8645 -0.3705
vn -0.2937 0.8950 0.3356
vn -0.2076 -0.9490 0.2373
vn -0.4472 0.0000 0.8944
vn 0.3648 -0.9287 -0.0663
vn 0.2182 0.8729 0.4364
vn 0.1562 -0.9370 -0.3123
vn 0.2306 -0.9687 0.0923
vn 0.6838 0.4558 0.5698
vn 0.0000 0.0000 1.0000
vn 0.5571 0.7428 0.3714
vn 0.3333 0.6667 -0.6667
vn 0.1374 -0.8242 -0.5494
vn 0.0000 -0.9615 0.2747
vn -0.2648 -0.9631 0.0482
vn -0.2673 0.8018 0.5345
vn -0.3396 0.8645 0.3705
usemtl Material
s off
f 1/1/1 2/2/1 21/3/1 18/4/1
f 2/5/2 1/6/2 19/7/2 21/8/2
f 7/9/3 26/10/3 38/11/3 15/12/3
f 1/13/4 3/14/4 4/15/4
f 4/16/5 6/17/5 25/18/5
f 18/4/6 24/19/6 5/20/6
f 3/21/7 5/22/7 11/23/7 9/24/7
f 6/17/8 4/16/8 10/25/8 12/26/8
f 5/20/9 24/19/9 26/10/9 7/9/9
f 25/18/10 6/17/10 8/27/10 29/28/10
f 6/29/11 5/20/11 7/9/11 8/30/11
f 10/31/12 9/32/12 13/33/12
f 4/34/12 3/35/12 9/32/12 10/31/12
f 5/20/13 6/29/13 12/36/13 11/37/13
f 11/38/14 12/36/14 14/39/14
f 9/40/7 11/38/7 14/39/7 13/41/7
f 12/26/15 10/25/15 13/42/15 14/43/15
f 16/44/16 15/45/16 38/46/16 39/47/16
f 8/30/12 7/9/12 15/12/12 16/48/12
f 29/28/17 8/27/17 16/49/17 39/50/17
f 25/18/18 19/7/18 1/6/18
f 1/6/19 4/16/19 25/18/19
f 3/51/20 1/1/20 5/20/20
f 1/1/21 18/4/21 5/20/21
f 17/52/22 18/4/22 21/3/22 20/53/22
f 20/54/23 21/8/23 19/7/23 17/55/23
f 30/56/3 40/57/3 38/11/3 26/10/3
f 17/58/24 23/59/24 22/60/24
f 23/61/25 25/18/25 28/62/25
f 18/4/6 27/63/6 24/19/6
f 22/64/26 32/65/26 34/66/26 27/67/26
f 28/62/27 35/68/27 33/69/27 23/61/27
f 27/63/9 30/56/9 26/10/9 24/19/9
f 25/18/28 29/28/28 31/70/28 28/62/28
f 28/71/29 31/72/29 30/56/29 27/63/29
f 33/73/30 36/74/30 32/75/30
f 23/76/30 33/73/30 32/75/30 22/77/30
f 27/63/31 34/78/31 35/79/31 28/71/31
f 34/80/32 37/81/32 35/79/32
f 32/82/26 36/83/26 37/81/26 34/80/26
f 35/68/33 37/84/33 36/85/33 33/69/33
f 41/86/16 39/47/16 38/46/16 40/87/16
f 31/72/30 41/88/30 40/57/30 30/56/30
f 29/28/17 39/50/17 41/89/17 31/70/17
f 25/18/34 17/55/34 19/7/34
f 17/55/35 25/18/35 23/61/35
f 22/90/36 27/63/36 17/52/36
f 17/52/37 27/63/37 18/4/37
